<?xml version="1.0" encoding="utf-8" ?>
<svg xmlns="http://www.w3.org/2000/svg" xmlns:xlink="http://www.w3.org/1999/xlink" width="1632" height="1632">
	<path fill="#747D8A" transform="scale(1.59466 1.59466)" d="M484.203 894.684C488.919 895.831 492.826 903.309 496.232 906.771C500.195 910.798 505.021 913.948 509.148 917.832C497.079 925.064 493.551 929.396 486.514 941.486C481.519 938.523 479.54 932.664 475.597 928.582C471.439 924.278 465.917 920.995 461.429 916.949C473.125 908.612 476.104 907.023 484.203 894.684Z"/>
	<path fill="#747D8A" transform="scale(1.59466 1.59466)" d="M904.415 288.345C907.069 290.703 908.737 294.771 910.983 297.614C916.243 304.274 923.398 310.109 930.386 314.875C918.124 322.237 912.67 328.721 905.028 340.611C902.655 339.109 898.627 331.135 896.496 328.43C891.536 322.132 885.959 318.131 879.015 314.239C890.276 307.072 897.404 299.622 904.415 288.345Z"/>
	<path fill="#747D8A" transform="scale(1.59466 1.59466)" d="M441.838 76.212Q442.995 76.1505 444.153 76.1164C451.958 75.8828 459.848 76.2662 467.661 76.3478Q488.086 76.5116 508.51 76.4413L686.5 76.3198L775.043 76.1171C788.671 76.0759 806.902 75.0418 820.115 76.3746C827.426 77.112 833.266 79.4104 838.594 84.5694C844.727 90.508 848.385 98.749 849.623 107.13C851.064 116.891 850.084 126.862 850.008 136.691L849.929 185.3Q849.473 278.169 849.998 371.035Q876.601 371.435 903.206 371.275C913.512 371.198 924.572 369.857 934.726 371.754C939.441 372.634 944.302 375.159 947.809 378.372C953.544 383.626 956.134 390.622 956.48 398.274C956.92 408.028 956.618 417.882 956.602 427.649L956.569 477.155L956.58 631.528L956.679 732L956.891 762.45C956.944 768.641 957.264 775.091 956.65 781.253C956.073 787.052 953.804 792.695 949.731 796.941C947.035 799.751 943.231 801.931 939.381 802.607C933.631 803.618 927.252 803.127 921.428 803.108L893.521 803.016L789 802.966L788.883 888.219C788.892 900.276 790.271 917.264 788.605 928.804C787.878 933.837 786.727 937.809 782.991 941.485C779.848 944.578 775.078 947.055 770.674 947.565C762.465 948.516 753.691 947.99 745.41 947.999L699.435 947.995L618.323 947.921C605.055 947.916 591.703 948.291 578.446 947.96C571.852 947.795 566.77 945.581 562.32 940.651C559.508 937.535 558.021 932.716 557.423 928.598C556.256 920.571 557.469 911.672 557.523 903.53C557.613 889.71 556.827 875.345 557.873 861.593L429.25 861.699L187.615 861.603L124.652 861.587C113.97 861.59 83.004 863.23 74.532 860.157C71.8871 859.197 69.6547 855.731 68.5676 853.294C67.1068 850.019 67.0817 845.759 67.0022 842.218C66.5611 822.557 67.0248 802.783 67.0527 783.108L67.0689 672.312L67.0383 562.645C67.0251 545.584 66.4705 528.41 66.8827 511.363C66.942 508.913 67.1094 506.676 67.9816 504.359C69.8496 503.169 72.9186 502.725 75.1063 502.547C85.1961 501.724 95.8784 502.427 106.039 502.421L168.397 502.426C161.08 487.498 155.087 471.39 148.745 456.001Q131.212 413.858 114.225 371.491Q101.702 340.299 88.7993 309.261C80.9274 290.656 72.3293 271.993 65.5798 252.948C63.0685 245.861 62.1802 239.861 65.6749 232.849C67.7671 228.651 70.4751 226.455 74.5802 224.415C87.1075 218.188 100.703 213.598 113.666 208.317L197.213 174.231L289.039 135.415C302.478 129.706 315.657 123.013 329.44 118.172C336.951 115.534 343.231 114.723 350.589 118.578C353.47 120.087 356.116 124.923 357.532 127.83C364.354 141.84 370.036 160.181 375.514 175.029C385.416 201.868 395.724 228.668 404.552 255.883Q404.016 204.65 404.371 153.416C404.387 140.368 403.135 118.276 405.097 106.363C406.12 100.149 408.359 95.0114 412.491 90.2433C420.165 81.3856 430.338 77.0707 441.838 76.212Z"/>
	<path transform="scale(1.59466 1.59466)" d="M736.129 405.01C735.793 399.852 734.841 391.703 736.284 386.824C736.674 392.865 736.42 398.962 736.498 405.016L736.448 414.069C759.876 414.035 783.373 414.384 806.792 413.931C811.282 414.215 815.893 413.928 820.418 414.116L820.239 414.311C808.823 414.932 797.286 414.641 785.851 414.705Q749.163 414.579 712.48 415.222L712.443 406.023C720.157 404.563 728.315 404.982 736.129 405.01Z"/>
	<path transform="scale(1.59466 1.59466)" d="M712.566 385.606C720.658 385.04 728.522 384.984 736.616 385.335L736.284 386.824C734.841 391.703 735.793 399.852 736.129 405.01C728.315 404.982 720.157 404.563 712.443 406.023L712.566 385.606Z"/>
	<path transform="scale(1.59466 1.59466)" d="M712.928 537.523C719.853 537.504 729.329 536.671 735.997 537.738L736.006 557.948L724.782 558.101C720.719 557.901 716.584 558.086 712.514 558.114C712.365 551.816 711.365 543.596 712.928 537.523Z"/>
	<path transform="scale(1.59466 1.59466)" d="M716.514 601.697C722.727 601.244 729.816 600.88 735.963 601.977C736.181 608.913 736.598 615.927 735.96 622.85Q728.522 622.942 721.083 622.93C718.139 622.489 715.078 622.671 712.106 622.684C712.05 616.358 711.204 608.753 712.472 602.602C713.725 601.829 715.073 601.861 716.514 601.697Z"/>
	<path fill="#424347" transform="scale(1.59466 1.59466)" d="M349.623 649.11C370.981 660.201 377.671 657.213 400.509 657.508L400.522 694.715C391.931 689.747 375.967 673.7 367.968 666.552C362.699 661.845 356.636 657.464 351.751 652.421C350.75 651.387 350.2 650.419 349.623 649.11Z"/>
	<path transform="scale(1.59466 1.59466)" d="M735.96 622.85L736.02 624.47C736.122 627.525 736.122 630.609 736.559 633.638L736.426 633.926L736.456 655.147C732.083 655.852 727.332 655.616 722.898 655.704Q711.558 656.023 700.213 655.936C698.728 655.738 697.244 655.553 695.767 655.304C695.793 654.685 695.698 655.056 696.484 654.419C704.146 648.208 706.527 641.963 710.836 633.469C711.843 630.136 712.137 626.593 712.581 623.147C715.43 623.176 718.239 623.099 721.083 622.93Q728.522 622.942 735.96 622.85Z"/>
	<path fill="#424347" transform="scale(1.59466 1.59466)" d="M735.96 622.85L736.02 624.47C736.122 627.525 736.122 630.609 736.559 633.638L736.426 633.926C729.412 632.016 718.39 633.497 710.836 633.469C711.843 630.136 712.137 626.593 712.581 623.147C715.43 623.176 718.239 623.099 721.083 622.93Q728.522 622.942 735.96 622.85Z"/>
	<path transform="scale(1.59466 1.59466)" d="M593.563 658.008L619.936 658.002L619.93 681.264C619.955 685.935 620.403 691.03 619.79 695.647C612.38 695.085 605.177 695.233 597.766 695.551C596.402 695.536 595.088 695.438 593.731 695.303C593.214 690.555 593.601 685.586 593.637 680.801Q593.674 669.404 593.563 658.008Z"/>
	<path transform="scale(1.59466 1.59466)" d="M724.782 558.101L736.006 557.948L736.04 569.344C736.316 576.196 737.189 583.753 735.963 590.533L736.002 593.285L736.073 601.403L735.963 601.977C729.816 600.88 722.727 601.244 716.514 601.697C715.382 601.568 714.415 601.652 713.289 601.746C713.17 601.287 713.133 601.198 713.073 600.657C712.823 598.383 712.432 592.418 713.867 590.756L712.96 590.538C711.469 587.226 712.09 573.157 712.772 569.12C713.232 565.712 713.015 562.071 713.028 558.626C716.847 558.625 721.05 558.945 724.782 558.101Z"/>
	<path fill="#424347" transform="scale(1.59466 1.59466)" d="M724.782 558.101L736.006 557.948L736.04 569.344C728.827 568.165 720.104 569.074 712.772 569.12C713.232 565.712 713.015 562.071 713.028 558.626C716.847 558.625 721.05 558.945 724.782 558.101Z"/>
	<path fill="#424347" transform="scale(1.59466 1.59466)" d="M713.867 590.756C721.174 590.062 728.618 590.843 735.963 590.533L736.002 593.285L736.073 601.403L735.963 601.977C729.816 600.88 722.727 601.244 716.514 601.697C715.382 601.568 714.415 601.652 713.289 601.746C713.17 601.287 713.133 601.198 713.073 600.657C712.823 598.383 712.432 592.418 713.867 590.756Z"/>
	<path fill="#424347" transform="scale(1.59466 1.59466)" d="M712.131 420.244L736.619 420.02L736.571 450.322C736.567 455.612 736.247 461.113 736.642 466.38C728.518 466.119 720.354 466.238 712.225 466.199Q712.337 443.221 712.131 420.244Z"/>
	<path fill="#424347" transform="scale(1.59466 1.59466)" d="M597.766 695.551C605.177 695.233 612.38 695.085 619.79 695.647L619.99 696.107Q619.799 724.108 620.022 752.108C611.653 750.761 602.107 752.319 593.617 752.534C593.549 745.156 593.016 699.56 594.461 696.08L597.766 695.551Z"/>
	<path transform="scale(1.59466 1.59466)" d="M712.485 472.488L784.427 472.059C791.162 472.063 806.885 471.021 812.616 472.877C787.193 473.218 761.738 472.956 736.311 472.93L736.38 505.483C736.369 512.327 736.071 519.296 736.574 526.118L736.349 527.198C735.757 530.463 735.943 534.079 736.102 537.391L735.997 537.738C729.329 536.671 719.853 537.504 712.928 537.523C713.089 534.013 713.029 530.533 712.938 527.021C711.647 522.97 712.491 480.553 712.485 472.488Z"/>
	<path fill="#424347" transform="scale(1.59466 1.59466)" d="M712.938 527.021C717.508 527.003 733.587 528.068 736.574 526.118L736.349 527.198C735.757 530.463 735.943 534.079 736.102 537.391L735.997 537.738C729.329 536.671 719.853 537.504 712.928 537.523C713.089 534.013 713.029 530.533 712.938 527.021Z"/>
	<path fill="#434647" transform="scale(1.59466 1.59466)" d="M693.497 211.741C702.301 211.698 733.957 209.963 740.253 214.121C741.569 214.99 742.598 216.212 742.756 217.844C742.938 219.715 741.589 222.027 740.265 223.286C738.898 224.586 737.121 225.033 735.28 225.118C728.104 225.45 720.653 225.018 713.455 225.017L664.499 225.02L505.75 225.268L478.895 225.386C474.295 225.421 469.031 225.94 464.525 225.297C462.814 225.054 461.078 224.464 459.659 223.464C457.963 222.269 456.558 220.33 456.352 218.224C456.196 216.619 456.701 215.426 457.818 214.297C459.504 212.593 462.369 212.321 464.611 212.164C473.274 211.559 482.179 211.945 490.868 211.957L536.98 212.064C589.105 212.216 641.387 212.803 693.497 211.741Z"/>
	<path fill="#434647" transform="scale(1.59466 1.59466)" d="M469.798 180.726C483.921 180.153 498.065 180.869 512.192 180.951L585.673 180.986L686.923 180.983C701.793 180.981 716.814 180.424 731.663 180.831C734.123 180.898 736.513 181.027 738.653 182.373C740.356 183.443 741.857 185.193 742.061 187.265C742.251 189.197 741.212 190.932 739.858 192.215C737.092 194.837 732.647 194.233 729.125 194.285C714.848 194.924 700.487 194.251 686.201 194.103L627.53 194.025L510.329 194.039C497.896 194.046 485.422 194.632 473.003 194.469C469.176 194.419 462.89 194.812 459.417 193.253C458.109 191.897 457.517 190.747 457.294 188.851C457.047 186.765 457.246 184.354 458.725 182.743C461.128 180.127 466.6 180.771 469.798 180.726Z"/>
	<path fill="#434647" transform="scale(1.59466 1.59466)" d="M472.896 149.731C534.447 149.14 596.102 149.497 657.657 149.841Q678.522 150.047 699.388 149.929C710.068 149.762 720.839 149.08 731.511 149.532C733.998 149.637 738.274 149.693 740.144 151.424C741.353 152.544 741.832 153.998 741.825 155.602C741.817 157.403 741.184 160.441 739.72 161.612C736.682 164.043 729.041 163.089 725.278 163.053C707.94 163.526 690.645 163.063 673.31 163.045L576.213 163.015L503.565 163.038C491.113 163.056 478.629 163.666 466.186 163.028C463.599 162.896 460.287 162.642 458.197 160.921C457.113 160.028 456.43 158.852 456.368 157.435C456.274 155.268 456.688 153.083 458.196 151.459C460.592 148.876 469.346 149.789 472.896 149.731Z"/>
	<path transform="scale(1.59466 1.59466)" d="M700.213 655.936Q711.558 656.023 722.898 655.704C727.332 655.616 732.083 655.852 736.456 655.147L736.573 655.372C736.526 659.256 736.364 663.181 736.56 667.059L736.423 667.418C736.364 673.695 736.591 680.162 736.037 686.408C722.092 686.52 708.183 686.25 694.242 686.063C686.233 685.956 677.88 685.478 669.9 686.194C668.064 686.359 665.394 686.532 664.038 687.946C662.891 689.145 662.656 690.602 662.869 692.176C663.05 693.518 663.408 694.751 663.881 696.013C657.042 696.543 650.22 696.958 643.358 696.681C635.856 696.379 627.439 695.133 619.99 696.107L619.79 695.647C620.403 691.03 619.955 685.935 619.93 681.264L619.936 658.002C628.82 657.986 656.879 656.282 663.894 658.711C670.086 659.931 681.607 659.581 687.882 658.278C692.149 657.392 695.777 655.972 700.213 655.936Z"/>
	<path fill="#424347" transform="scale(1.59466 1.59466)" d="M700.213 655.936Q711.558 656.023 722.898 655.704C727.332 655.616 732.083 655.852 736.456 655.147L736.573 655.372C736.526 659.256 736.364 663.181 736.56 667.059L736.423 667.418C732.353 665.793 690.615 666.779 683.066 666.885C677.643 666.961 670.786 667.892 665.596 666.379C664.627 666.096 663.738 665.523 663.296 664.59C662.357 662.604 663.241 660.644 663.894 658.711C670.086 659.931 681.607 659.581 687.882 658.278C692.149 657.392 695.777 655.972 700.213 655.936Z"/>
	<path fill="#434647" transform="scale(1.59466 1.59466)" d="M736.616 385.335C749.631 384.874 762.738 385.148 775.764 385.124L845.323 385.015L897.652 385.112C906.78 385.164 916.222 384.779 925.306 385.548C929.571 385.909 934.539 386.071 937.863 389.093C940.831 391.79 941.427 395.677 941.469 399.497C941.474 399.927 941.459 400.357 941.433 400.786L940.787 404.734C935.112 405.691 928.129 404.904 922.315 404.883L885.106 404.871C835.593 404.871 786.002 404.295 736.498 405.016C736.42 398.962 736.674 392.865 736.284 386.824L736.616 385.335Z"/>
	<path transform="scale(1.59466 1.59466)" d="M413.997 657.997L576.786 657.992Q576.355 676.696 576.481 695.404L574.581 695.425C567.433 694.887 560.121 695.172 552.949 695.178L515.396 695.213C481.636 695.223 447.825 694.784 414.071 695.229L413.997 657.997Z"/>
	<path transform="scale(1.59466 1.59466)" d="M663.881 696.013C663.408 694.751 663.05 693.518 662.869 692.176C662.656 690.602 662.891 689.145 664.038 687.946C665.394 686.532 668.064 686.359 669.9 686.194C677.88 685.478 686.233 685.956 694.242 686.063C708.183 686.25 722.092 686.52 736.037 686.408L735.998 687.982C736.017 691.103 735.802 694.492 736.251 697.567C736.579 703.508 737.193 709.909 736.081 715.773L736.019 718.379L736.082 719.14C736.034 722.736 735.947 726.338 736.046 729.933C738.528 737.853 742.896 743.203 750.247 747.104C753.363 748.758 756.786 750.116 760.105 751.316C751.498 752.584 622.474 753.132 620.022 752.108Q619.799 724.108 619.99 696.107C627.439 695.133 635.856 696.379 643.358 696.681C650.22 696.958 657.042 696.543 663.881 696.013Z"/>
	<path fill="#424347" transform="scale(1.59466 1.59466)" d="M663.881 696.013C663.408 694.751 663.05 693.518 662.869 692.176C662.656 690.602 662.891 689.145 664.038 687.946C665.394 686.532 668.064 686.359 669.9 686.194C677.88 685.478 686.233 685.956 694.242 686.063C708.183 686.25 722.092 686.52 736.037 686.408L735.998 687.982C736.017 691.103 735.802 694.492 736.251 697.567C736.579 703.508 737.193 709.909 736.081 715.773C735.903 709.706 736.009 703.602 735.978 697.531C720.161 696.983 704.078 697.492 688.244 697.613C682.128 697.66 675.446 698.418 669.396 697.686C667.396 697.443 665.706 696.843 663.881 696.013Z"/>
	<path fill="#424347" transform="scale(1.59466 1.59466)" d="M736.046 729.933C723.122 728.358 671.533 731.961 664.775 727.849C663.323 726.965 662.043 725.524 661.85 723.771C661.696 722.37 662.264 721.237 663.176 720.222C664.476 718.777 666.621 718.325 668.454 718.107C676.054 717.202 684.021 718.144 691.682 718.196C706.458 718.297 721.247 718.025 736.019 718.379L736.082 719.14C736.034 722.736 735.947 726.338 736.046 729.933Z"/>
	<path fill="#434647" transform="scale(1.59466 1.59466)" d="M736.619 420.02L902.799 420.005L902.767 466.005L736.642 466.38C736.247 461.113 736.567 455.612 736.571 450.322L736.619 420.02Z"/>
	<path fill="#434647" transform="scale(1.59466 1.59466)" d="M444.296 89.6994C454.825 88.4834 466.335 89.7873 476.989 89.7929L554.217 89.798Q676.613 90.3409 799.007 89.497C794.11 97.2334 791.536 104.389 789.838 113.367C784.647 113.262 779.443 113.302 774.25 113.278L544.064 113.291C502.065 113.29 459.936 113.969 417.953 113.046C419.037 107.832 420.672 102.707 424.146 98.5485C429.431 92.222 436.493 90.4453 444.296 89.6994Z"/>
	<path fill="#434647" transform="scale(1.59466 1.59466)" d="M817.77 90.027C817.945 90.0271 818.121 90.0234 818.297 90.0274C823.067 90.1359 827.146 91.6427 830.447 95.1852C834.354 99.3788 835.738 104.785 836.335 110.32C837.677 122.753 836.932 135.645 836.938 148.148L836.913 214.526L836.574 304.5C836.588 326.649 837.131 348.87 836.2 371.003C831.432 371.284 826.646 371.245 821.872 371.277Q812.201 371.306 802.531 371.218L802.496 203.799L802.466 150.855C802.417 139.923 801.93 128.814 802.587 117.903C802.866 113.26 803.583 108.576 805.152 104.182C807.549 97.4674 811.353 93.12 817.77 90.027Z"/>
	<path fill="#434647" transform="scale(1.59466 1.59466)" d="M678.462 280.518C681.491 280.497 684.081 280.742 686.809 282.164C692.517 285.14 695.591 291.379 697.26 297.344C700.703 309.643 699.007 342.088 699.007 356.421L699.057 443.507L699.2 550.711C699.276 570.681 700.3 591.016 699.148 610.932C698.661 619.349 697.848 628.591 693.509 636.04C690.829 640.641 687.663 642.525 682.663 643.848C681.449 643.745 680.198 643.658 679.007 643.391C674.841 642.455 671.294 638.459 669.157 634.984C664.39 627.233 662.43 617.427 661.757 608.467C660.477 591.455 661.45 574.296 661.499 557.253L661.504 469.255L661.464 366.098C661.416 347.469 658.839 319.143 663.254 301.603C665.614 292.231 670.095 285.572 678.462 280.518Z"/>
	<path fill="#424347" transform="scale(1.59466 1.59466)" d="M574.581 695.425L576.481 695.404C576.963 714.419 576.572 733.579 576.5 752.602L570.288 752.511C567.521 754.083 564.822 755.824 562.56 758.083C559.675 760.964 558.676 764.448 558.066 768.37C556.433 778.88 557.606 790.456 557.761 801.083L557.983 846.997L417.636 847.001C390.335 846.988 363.062 846.574 335.759 847.142Q360.261 821.044 386.14 796.311C394.019 788.679 402.572 781.546 410.031 773.511C411.885 771.514 414.462 769.096 414.729 766.281C414.755 766.014 414.766 765.747 414.788 765.48C415.334 759.051 414.823 752.591 414.904 746.146Q415.236 720.875 414.881 695.604L519.998 695.601C538.09 695.601 556.531 696.348 574.581 695.425Z"/>
	<path transform="scale(1.59466 1.59466)" d="M253.47 166.438C258.617 161.993 308.039 143.543 318.508 139.2C326.575 135.852 334.398 131.826 342.491 128.577C347.962 141.944 352.789 155.616 357.827 169.153L380.839 231.214C385.166 243.066 389.026 255.316 393.801 266.976C376.875 266.591 357.641 264.958 344.368 277.647C334.328 287.247 331.692 299.033 331.477 312.501C331.222 328.428 331.621 344.413 331.658 360.345L331.711 448C331.757 466.014 332.09 483.973 331.529 501.986C328.906 502.012 320.773 502.883 318.851 501.454C313.891 492.096 309.66 482.208 305.092 472.644Q287.846 436.44 271.133 399.986C264.923 386.63 238.137 332.965 237.132 323.548C236.069 313.596 239.679 301.678 241.17 291.778C243.466 276.532 245.507 261.235 247.572 245.956L247.396 245.618Q247.745 244.689 248.017 243.734C248.851 240.768 250.04 233.836 248.564 231.165L249.935 230.572C250.183 223.284 251.445 215.901 252.068 208.615L253.979 207.722C253.873 203.014 253.052 196.513 254.831 192.144C253.595 192.706 252.374 193.507 250.986 193.191L250.722 192.098C251.937 183.669 253.572 174.975 253.47 166.438Z"/>
	<path transform="scale(1.59466 1.59466)" d="M254.831 192.144C254.981 192.105 255.131 192.069 255.279 192.028C260.442 190.626 265.588 188.032 270.51 185.927L295.991 175.007C301.014 172.848 306.132 170.382 311.503 169.225C314.506 168.577 318.259 168.155 321.051 169.773C328.452 174.064 333.816 193.897 335.885 202.351C332.693 210.549 329.578 212.068 321.744 215.539C303.365 223.684 284.265 230.678 265.615 238.241C260.576 240.284 251.506 242.726 247.572 245.956L247.396 245.618Q247.745 244.689 248.017 243.734C248.851 240.768 250.04 233.836 248.564 231.165L249.935 230.572C250.183 223.284 251.445 215.901 252.068 208.615L253.979 207.722C253.873 203.014 253.052 196.513 254.831 192.144Z"/>
	<path fill="#424347" transform="scale(1.59466 1.59466)" d="M253.979 207.722C262.149 205.365 270.275 200.993 278.116 197.631Q296.235 190.017 314.619 183.067L320.953 200.939C297.33 210.752 273.263 220.118 249.935 230.572C250.183 223.284 251.445 215.901 252.068 208.615L253.979 207.722Z"/>
	<path fill="#424347" transform="scale(1.59466 1.59466)" d="M571.682 768.688C571.852 767.905 571.819 766.897 572.502 766.388C573.191 765.874 573.741 765.734 574.561 765.577C582.845 763.993 592.985 765.347 601.482 765.441C615.187 765.592 628.909 765.45 642.615 765.437L724.615 765.15C735.241 765.087 758.063 763.762 767.513 765.851C769.698 766.333 771.694 767.827 773.317 769.314C775.855 776.969 774.62 846.848 774.641 861.56C774.671 882.736 775.335 904.078 774.863 925.233C774.824 926.971 774.793 929.427 773.823 930.941C773.567 931.341 773.382 931.429 773.032 931.671C766.972 933.281 761.61 933.179 755.408 932.616C754.674 932.475 754.915 932.463 754.28 932.521C733.469 934.413 711.827 933.018 690.923 932.995L572.578 932.997C571.493 918.068 572.043 902.911 572.037 887.941C572.027 859.438 572.262 830.908 571.902 802.409Q571.698 792.969 571.709 783.527C571.761 778.633 572.222 773.553 571.682 768.688Z"/>
	<path transform="scale(1.59466 1.59466)" d="M762.716 778.108C757.137 791.684 713.339 836.37 701.037 849.408C708.412 857.212 714.902 865.816 721.893 873.96C732.387 886.182 743.262 898.07 753.832 910.223C760.156 917.493 765.228 925.818 773.032 931.671C766.972 933.281 761.61 933.179 755.408 932.616C756.966 932.639 759.662 932.922 760.937 931.944C758.768 927.907 753.968 923.863 750.784 920.455Q737.707 906.461 724.438 892.649C713.863 881.512 703.842 870.028 694.672 857.704C689.964 862.226 685.702 867.55 680.623 871.633C678.622 873.241 676.211 874.594 673.555 874.208C667.041 873.263 658.454 860.264 654.42 855.239C637.21 872.426 596.429 923.133 576.496 931.736C582.995 922.185 591.821 913.365 599.342 904.574Q623.35 876.385 647.699 848.489C634.664 834.09 622.172 819.215 609.221 804.747C604.189 799.124 594.316 791.357 591.178 785.1C597.446 790.742 603.249 797.059 609.378 802.877Q628.355 820.586 647.091 838.551C653.126 844.442 658.669 850.927 664.973 856.529C666.55 857.93 670.224 861.431 672.307 861.474C675.486 861.539 678.342 859.278 680.686 857.369C689.371 850.299 697.169 841.101 705.254 833.264Q733.741 805.432 762.716 778.108Z"/>
	<path fill="#424347" transform="scale(1.59466 1.59466)" d="M773.317 769.314C775.855 776.969 774.62 846.848 774.641 861.56C774.671 882.736 775.335 904.078 774.863 925.233C774.824 926.971 774.793 929.427 773.823 930.941C773.567 931.341 773.382 931.429 773.032 931.671C765.228 925.818 760.156 917.493 753.832 910.223C743.262 898.07 732.387 886.182 721.893 873.96C714.902 865.816 708.412 857.212 701.037 849.408C713.339 836.37 757.137 791.684 762.716 778.108C765.051 774.538 769.851 771.666 773.317 769.314Z"/>
	<path fill="#434647" transform="scale(1.59466 1.59466)" d="M571.682 768.688C571.852 767.905 571.819 766.897 572.502 766.388C573.191 765.874 573.741 765.734 574.561 765.577C582.845 763.993 592.985 765.347 601.482 765.441C615.187 765.592 628.909 765.45 642.615 765.437L724.615 765.15C735.241 765.087 758.063 763.762 767.513 765.851C769.698 766.333 771.694 767.827 773.317 769.314C769.851 771.666 765.051 774.538 762.716 778.108Q733.741 805.432 705.254 833.264C697.169 841.101 689.371 850.299 680.686 857.369C678.342 859.278 675.486 861.539 672.307 861.474C670.224 861.431 666.55 857.93 664.973 856.529C658.669 850.927 653.126 844.442 647.091 838.551Q628.355 820.586 609.378 802.877C603.249 797.059 597.446 790.742 591.178 785.1C591.118 784.987 591.073 784.866 591 784.761C589.736 782.968 574.008 767.284 573.418 767.208L571.682 768.688Z"/>
	<path fill="#434647" transform="scale(1.59466 1.59466)" d="M184.794 502.277C176.17 484.508 168.612 466.049 160.995 447.829L115.104 335.338Q103.967 308.557 92.4794 281.924C87.4118 270.17 80.3228 256.715 77.6118 244.306C77.2555 242.675 78.1203 241.165 79.0461 239.844C80.5951 237.633 83.0388 236.491 85.4343 235.447C97.1619 230.331 109.312 226.061 121.163 221.216L196.29 189.945L236.178 173.293C241.033 171.267 248.528 167.197 253.47 166.438C253.572 174.975 251.937 183.669 250.722 192.098L250.986 193.191C252.374 193.507 253.595 192.706 254.831 192.144C253.052 196.513 253.873 203.014 253.979 207.722L252.068 208.615C251.445 215.901 250.183 223.284 249.935 230.572L248.564 231.165C250.04 233.836 248.851 240.768 248.017 243.734Q247.745 244.689 247.396 245.618L247.572 245.956C245.507 261.235 243.466 276.532 241.17 291.778C239.679 301.678 236.069 313.596 237.132 323.548C238.137 332.965 264.923 386.63 271.133 399.986Q287.846 436.439 305.092 472.644C309.66 482.208 313.891 492.096 318.851 501.454C316.173 502.795 196.729 502.236 184.794 502.277Z"/>
	<path transform="scale(1.59466 1.59466)" d="M146.144 307.997C147.383 307.957 148.573 307.906 149.767 308.321C155.494 310.315 160.825 328.019 162.767 333.284C160.8 335.473 158.891 337.407 156.481 339.116C155.462 339.278 154.442 339.377 153.414 339.238C151.34 338.956 149.968 337.057 148.858 335.465C146.093 331.501 139.857 318.347 140.884 313.732C141.502 310.955 143.982 309.514 146.144 307.997Z"/>
	<path transform="scale(1.59466 1.59466)" d="M165.469 352.421C166.175 352.505 166.827 352.623 167.495 352.881C171.233 354.32 172.508 358.291 174.077 361.672C180.563 375.653 186.063 390.222 192.176 404.392Q200.299 422.902 207.767 441.685C210.046 447.431 212.801 453.415 214.208 459.43C214.521 460.772 214.535 461.661 214.012 462.947C212.906 465.661 209.716 466.774 207.216 467.758C206.206 467.46 205.159 467.161 204.235 466.647C202.327 465.586 201.552 463.913 200.652 462.032C197.659 455.78 195.279 449.189 192.674 442.765Q185.827 425.892 178.795 409.096L166.366 380.254C163.283 373.145 159.948 366.057 157.752 358.613C160.074 355.964 162.465 354.194 165.469 352.421Z"/>
	<path transform="scale(1.59466 1.59466)" d="M190.391 304.979C191.765 304.936 193.128 304.916 194.465 305.293C196.346 305.823 197.579 307.173 198.505 308.838C202.014 315.144 204.511 322.203 207.293 328.866L222.214 364.473L240.897 408.312C244.606 416.916 248.86 425.5 251.838 434.388C252.496 436.353 253.047 439.066 252.253 441.076C251.405 443.222 250.074 444.033 248.081 445.033C247.882 445.035 247.683 445.042 247.485 445.037C245.26 444.983 241.811 444.879 240.285 442.961C236.526 438.233 224.187 404.631 221.088 397.177C210.185 370.954 197.965 344.38 187.662 318.029C186.849 315.948 185.817 313.799 185.99 311.523C186.214 308.58 188.334 306.825 190.391 304.979Z"/>
	<path transform="scale(1.59466 1.59466)" d="M247.396 245.618C226.106 253.215 204.287 262.764 183.47 271.693C172.337 276.468 161.185 281.876 149.625 285.524C145.728 286.753 140.48 288.413 136.424 287.341C131.975 286.166 128.517 282.613 126.238 278.765C122.276 272.074 117.703 261.27 119.892 253.452C120.652 250.737 122.385 247.793 124.723 246.143C130.288 242.212 143.907 237.822 150.701 235.044Q185.208 221.259 219.562 207.097C229.578 202.993 240.753 199.487 250.244 194.36L250.722 192.098L250.986 193.191C252.374 193.507 253.595 192.706 254.831 192.144C253.052 196.513 253.873 203.014 253.979 207.722L252.068 208.615C251.445 215.901 250.183 223.284 249.935 230.572L248.564 231.165C250.04 233.836 248.851 240.768 248.017 243.734Q247.745 244.689 247.396 245.618Z"/>
	<path fill="#434647" transform="scale(1.59466 1.59466)" d="M252.068 208.615C251.445 215.901 250.183 223.284 249.935 230.572L248.564 231.165C211.786 245.388 175.65 261.74 138.471 274.833C135.938 269.206 133.803 263.514 131.777 257.693C146.809 250.778 162.088 245.148 177.412 238.982L252.068 208.615Z"/>
	<path fill="#424347" transform="scale(1.59466 1.59466)" d="M736.498 405.016C786.002 404.295 835.593 404.871 885.106 404.871L922.315 404.883C928.129 404.904 935.112 405.691 940.787 404.734L941.433 400.786L941.541 650.395L941.559 730.78C941.584 748.064 941.879 765.269 941.41 782.553C938.942 785.959 937.248 787.967 932.878 788.675C919.077 790.91 903.826 788.805 889.838 788.779L789.11 788.999C789.35 779.419 790.982 765.302 783.798 757.741C777.547 751.162 768.362 751.737 760.105 751.316C756.786 750.116 753.363 748.758 750.247 747.104C742.896 743.203 738.528 737.853 736.046 729.933C735.947 726.338 736.034 722.736 736.082 719.14L736.019 718.379L736.081 715.773C737.193 709.909 736.579 703.508 736.251 697.567C735.802 694.492 736.017 691.103 735.998 687.982L736.037 686.408C736.591 680.162 736.364 673.695 736.423 667.418L736.56 667.059C736.364 663.181 736.526 659.256 736.573 655.372L736.456 655.147L736.426 633.926L736.559 633.638C736.122 630.609 736.122 627.525 736.02 624.47L735.96 622.85C736.598 615.927 736.181 608.913 735.963 601.977L736.073 601.403L736.002 593.285L735.963 590.533C737.189 583.753 736.316 576.196 736.04 569.344L736.006 557.948L735.997 537.738L736.102 537.391C735.943 534.079 735.757 530.463 736.349 527.198L736.574 526.118C736.071 519.296 736.369 512.327 736.38 505.483L736.311 472.93C761.738 472.956 787.193 473.218 812.616 472.877C813.387 472.991 813.09 472.994 813.803 472.937C825.465 471.992 837.476 472.486 849.182 472.489L908.986 472.503L908.886 413.453C884.05 415.031 858.583 414.154 833.673 414.043C824.777 414.004 815.62 412.595 806.792 413.931C783.373 414.384 759.876 414.035 736.448 414.069L736.498 405.016Z"/>
	<path fill="#434647" transform="scale(1.59466 1.59466)" d="M736.573 655.372C748.861 655.74 761.208 655.605 773.5 655.493C779.324 655.44 785.179 654.784 790.987 655.439C793.542 655.728 797.239 656.307 799.161 658.152C800.116 659.069 800.506 659.972 800.473 661.314C800.435 662.893 799.006 664.869 797.723 665.669C791.981 669.244 746.896 666.727 736.56 667.059C736.364 663.181 736.526 659.256 736.573 655.372Z"/>
	<path fill="#434647" transform="scale(1.59466 1.59466)" d="M736.349 527.198L812.242 526.522C823.257 526.467 835.091 525.225 845.983 526.692C848.576 527.041 851.247 527.86 853.145 529.771C854.125 530.759 854.222 531.177 854.507 532.488C854.07 534.159 853.408 535.06 851.95 535.941C849.305 537.54 846.054 537.818 843.032 538.003C836.392 538.408 829.58 538.104 822.922 538.08L787.238 538.018L758.163 538.035C750.841 538.05 743.378 538.3 736.102 537.391C735.943 534.079 735.757 530.463 736.349 527.198Z"/>
	<path fill="#434647" transform="scale(1.59466 1.59466)" d="M735.998 687.982C737.942 686.452 749.051 686.367 752.415 686.239C772.854 685.462 793.56 686.119 814.035 686.115C827.399 686.113 841.749 684.989 854.998 686.497C857.894 686.826 860.106 687.544 861.928 689.901C862.674 690.866 862.997 691.674 863.308 692.838C863.018 694.375 862.701 695.183 861.325 696.035C858.833 697.578 855.511 698.008 852.632 698.139C844.422 698.514 836.15 698.077 827.935 698.02L782.957 697.908L753.106 697.95C747.663 697.96 741.612 698.484 736.251 697.567C735.802 694.492 736.017 691.103 735.998 687.982Z"/>
	<path fill="#434647" transform="scale(1.59466 1.59466)" d="M736.082 719.14C740.828 719.193 745.617 719.339 750.358 719.093C755.789 718.812 761.166 718.091 766.611 718.037C800.773 717.698 835.204 717.462 869.353 718.4C874.025 718.529 878.743 718.608 883.415 718.46C887.303 718.337 891.339 717.803 895.21 718.213C898.082 718.518 901.271 719.202 903.432 721.272C904.568 722.361 905.053 723.424 905.058 725.015C904.37 726.652 903.488 727.454 901.883 728.167C898.015 729.885 892.579 729.649 888.356 729.784C865.263 730.52 842.129 729.301 819.029 729.559Q791.079 729.938 763.127 729.973C754.21 729.996 744.927 730.551 736.046 729.933C735.947 726.338 736.034 722.736 736.082 719.14Z"/>
	<path fill="#434647" transform="scale(1.59466 1.59466)" d="M736.006 557.948L852.432 557.873Q865.915 558.022 879.398 557.969C884.575 557.917 890.125 557.37 895.266 557.869C898.128 558.147 901.633 559.016 903.589 561.305C904.196 562.015 904.328 562.641 904.493 563.524C904.118 565.247 903.423 566.215 901.974 567.197C899.561 568.83 896.519 569.429 893.657 569.629C886.935 570.099 879.997 569.5 873.244 569.492L827.782 569.495L768.447 569.524C757.688 569.528 746.781 569.898 736.04 569.344L736.006 557.948Z"/>
	<path fill="#434647" transform="scale(1.59466 1.59466)" d="M736.002 593.285L736.844 591.008C741.332 588.972 852.046 590.02 867.344 590.007C875.648 590 884.043 589.519 892.334 589.764C894.514 589.828 896.704 590.082 898.774 590.802C900.774 591.498 903.039 592.803 903.821 594.9C904.242 596.031 904.088 597.157 903.458 598.175C902.159 600.276 899.396 601.412 897.053 601.776C891.97 602.566 886.306 602.094 881.149 602.037Q869.166 601.879 857.182 601.881L777.875 601.99C765.679 602.025 753.3 602.559 741.124 602.196C739.497 602.148 737.479 602.286 736.073 601.403L736.002 593.285Z"/>
	<path fill="#434647" transform="scale(1.59466 1.59466)" d="M736.02 624.47C736.621 623.417 736.626 622.981 737.872 622.691C743.043 621.491 766.242 622.3 773.218 622.232Q814.001 621.92 854.785 622.028C867.486 622.048 880.464 621.407 893.124 622.067C896.18 622.227 899.746 622.508 902.361 624.23C903.293 624.843 903.994 625.697 904.213 626.812Q904.268 627.082 904.292 627.356Q904.316 627.63 904.308 627.906Q904.3 628.181 904.26 628.453Q904.221 628.726 904.15 628.992Q904.08 629.258 903.98 629.515Q903.879 629.771 903.75 630.014Q903.621 630.257 903.465 630.484Q903.308 630.711 903.127 630.918C900.616 633.781 895.805 634.13 892.248 634.211C881.046 634.465 869.814 633.979 858.609 633.971L789.905 634.174L756.25 634.197C750.411 634.198 742.093 635.17 736.559 633.638C736.122 630.609 736.122 627.525 736.02 624.47Z"/>
	<path fill="#434647" transform="scale(1.59466 1.59466)" d="M82.5298 516.291C95.3497 515.525 108.371 515.77 121.218 515.75Q151.873 515.66 182.527 515.923L331.471 516.505L331.46 580.597C331.433 590.721 330.776 600.96 331.292 611.065C332.201 628.881 336.493 637.169 349.623 649.11C350.2 650.419 350.75 651.387 351.751 652.421C356.636 657.464 362.699 661.845 367.968 666.552C375.967 673.7 391.931 689.747 400.522 694.715L400.399 736.996C400.407 745.591 400.074 754.431 401.133 762.965C398.254 767.285 393.911 770.603 390.204 774.189C384.864 779.353 379.668 784.661 374.305 789.808C362.82 800.83 351.626 812.124 340.223 823.223C332.296 830.939 324.194 838.336 316.571 846.368C308.028 847.591 298.698 846.871 290.051 846.845L245.533 846.808L82.9997 846.803L82.5298 516.291Z"/>
	<path fill="#424347" transform="scale(1.59466 1.59466)" d="M118.888 770.255C129.92 770.128 164.631 768.692 172.227 771.052C174.307 771.698 176.119 772.483 177.156 774.489C177.417 776.124 176.873 777.151 175.91 778.414C173.981 780.946 172.69 781.503 169.625 781.994C159.479 782.038 123.857 783.372 116.306 780.901C114.024 780.155 112.337 779.268 111.241 777.085C111.136 775.369 111.687 774.417 112.769 773.166C114.704 770.929 115.984 770.504 118.888 770.255Z"/>
	<path fill="#424347" transform="scale(1.59466 1.59466)" d="M209.815 771.031C220.762 770.497 231.903 771.005 242.875 770.962C251.945 770.927 272.392 769.76 279.753 771.405C281.594 771.817 283.194 772.865 284.104 774.548C284.826 775.883 284.996 777.499 284.443 778.934C283.733 780.774 282.16 781.333 280.474 781.965C268.231 782.016 255.972 781.965 243.731 782.2C233.029 782.405 221.013 783.554 210.504 781.686C208.767 781.377 207.515 780.74 206.521 779.216C205.661 777.899 205.223 776.38 205.711 774.824C206.33 772.851 208.152 771.982 209.815 771.031Z"/>
	<path fill="#424347" transform="scale(1.59466 1.59466)" d="M293.296 654.255C299.928 654.297 309.697 652.923 315.431 656.767C316.546 657.514 317.342 658.579 317.481 659.948C317.661 661.717 316.946 663.303 315.709 664.528C314.441 665.785 313.233 666.023 311.521 666.263C302.314 667.554 292.017 666.884 282.692 666.953L221.75 667.017C216.483 667.055 202.327 667.841 198.451 664.684C197.145 663.62 196.173 662.094 196.211 660.359C196.242 658.997 196.855 657.745 197.838 656.82C199.333 655.413 201.283 655.163 203.243 654.976C213.985 653.95 227.35 654.886 238.326 654.919C256.659 654.975 274.966 654.511 293.296 654.255Z"/>
	<path fill="#424347" transform="scale(1.59466 1.59466)" d="M286.39 620.273C293.221 620.053 310.516 618.349 315.678 622.571C316.854 623.533 317.504 625.015 317.58 626.52C317.654 627.99 317.146 629.156 316.22 630.247C314.625 632.127 311.881 632.448 309.601 632.703C300.93 633.669 291.602 632.871 282.846 632.897L226.625 633.075C219.855 633.191 202.506 634.917 197.614 630.768C196.538 629.854 195.639 628.523 195.675 627.057C195.707 625.722 196.5 624.478 197.428 623.572C199.343 621.701 202.046 620.893 204.646 620.598C210.311 619.954 216.278 620.824 221.996 620.766C243.452 620.549 264.942 620.729 286.39 620.273Z"/>
	<path fill="#424347" transform="scale(1.59466 1.59466)" d="M199.393 688.02C208.65 687.638 218.013 687.892 227.281 687.891L278.382 687.893L316.093 687.903C322.997 687.905 330.074 687.574 336.952 688.087C339.305 688.262 343.417 688.467 345.102 690.193C345.954 691.066 346.426 692.047 346.307 693.285C346.043 696.024 344.061 698 342.102 699.706C337.172 700.558 331.543 700.033 326.51 700.034L295.798 700.029L242.344 700.048C230.862 700.093 219.264 700.443 207.792 699.996C205.519 699.908 199.75 699.977 197.974 698.529C196.69 697.482 195.748 696.183 195.697 694.476C195.618 691.812 197.624 689.713 199.393 688.02Z"/>
	<path fill="#424347" transform="scale(1.59466 1.59466)" d="M115.214 804.015C147.735 803.396 180.388 804.021 212.923 804.019L251.468 803.982C259.851 803.941 268.344 803.605 276.716 804.045C278.982 804.164 281.463 804.064 283.319 805.564C284.474 806.497 285.328 807.725 285.328 809.266C285.329 811.866 283.619 813.724 281.87 815.42C274.389 816.129 266.508 815.577 258.989 815.544L218.641 815.522C186.385 815.591 153.875 817 121.649 815.96C119.287 815.884 115.61 816.17 113.761 814.529C112.605 813.504 111.95 812.281 111.872 810.717C111.731 807.898 113.302 805.856 115.214 804.015Z"/>
	<path fill="#424347" transform="scale(1.59466 1.59466)" d="M116.494 560.302C130.5 560.821 144.666 560.399 158.685 560.398L237.121 560.384L237.054 594.01L116.493 594.072L116.494 560.302Z"/>
	<path fill="#434647" transform="scale(1.59466 1.59466)" d="M371.051 281.204C383.063 280.68 395.183 280.99 407.208 280.99L469.336 280.992L658.855 281.014C656.504 284.534 654.434 288.005 652.812 291.923C649.798 299.209 648.57 306.729 648.104 314.562C646.992 333.248 647.963 352.067 647.985 370.78L647.972 475.202L647.997 562.397C647.966 578.75 646.97 595.083 648.383 611.405C649.39 623.04 653.039 633.128 657.53 643.788C652.861 643.963 648.169 643.94 643.496 644.005L460.319 644.012C443.297 644.004 426.273 643.708 409.252 643.826C397.476 643.908 385.442 644.818 373.723 643.555C366.994 642.83 361.415 641.258 356.08 636.881C349.707 631.653 345.837 624.475 345.144 616.226C344.588 609.608 344.856 602.807 344.88 596.168L344.975 564.007L345.031 459.329L345.281 355.912L345.315 327.411C345.27 320.267 344.93 312.986 345.606 305.869C346.182 299.798 348.226 293.835 352.273 289.181C357.348 283.347 363.684 281.735 371.051 281.204Z"/>
	<path fill="#424347" transform="scale(1.59466 1.59466)" d="M383.893 421.795C393.348 422.269 402.98 421.913 412.459 421.914L466.073 421.92L611.916 421.798L611.849 433.426C586.774 433.897 561.524 433.008 536.422 433L383.908 433.498L383.893 421.795Z"/>
	<path fill="#424347" transform="scale(1.59466 1.59466)" d="M383.655 543.942C423.463 544.914 463.459 544.181 503.283 544.184C539.442 544.187 575.83 545.009 611.962 543.951C611.991 547.92 612.011 551.872 611.821 555.838C602.396 555.128 592.716 555.551 583.258 555.549L532.692 555.556L383.512 555.55L383.655 543.942Z"/>
	<path fill="#424347" transform="scale(1.59466 1.59466)" d="M383.975 380.97L611.537 381.465L611.496 392.74Q564.498 393.014 517.5 392.732L383.913 392.549L383.975 380.97Z"/>
	<path fill="#424347" transform="scale(1.59466 1.59466)" d="M543.469 585.25L612.066 585.162L612.005 596.736C559.085 597.499 506.069 596.836 453.137 596.857L383.496 596.896L383.487 585.439C404.662 585.78 425.884 585.448 447.063 585.411L543.469 585.25Z"/>
	<path fill="#424347" transform="scale(1.59466 1.59466)" d="M383.543 461.509C392.573 461.99 401.75 461.648 410.801 461.647L459.873 461.639L612.035 461.474L612.053 473.547L383.53 473.549L383.543 461.509Z"/>
	<path fill="#424347" transform="scale(1.59466 1.59466)" d="M383.485 502.411C410.22 502.944 437.052 502.485 463.796 502.485L611.969 502.439L612.005 514.255C603.804 515.266 595.114 514.6 586.849 514.579L542.277 514.524L383.507 514.594L383.485 502.411Z"/>
	<path transform="scale(1.59466 1.59466)" d="M383.956 316.76Q463.467 317.544 542.98 317.032L576.242 317.007C586.339 316.927 597.331 315.92 607.243 318.058C608.932 319.449 609.878 320.95 610.547 323.046C612.991 330.695 612.382 347.187 608.652 354.403C606.388 355.819 603.671 357.109 600.988 357.34C590.573 358.235 579.742 357.778 569.276 357.66Q549.679 357.438 530.08 357.484L441.189 357.486C429.251 357.492 417.278 357.802 405.345 357.647C399.531 357.571 392.492 357.693 388.232 353.022C381.147 345.253 383.573 326.5 383.956 316.76Z"/>
</svg>
