<?xml version="1.0" encoding="utf-8" ?>
<svg xmlns="http://www.w3.org/2000/svg" xmlns:xlink="http://www.w3.org/1999/xlink" width="346" height="346">
	<path fill="#283936" transform="scale(0.338497 0.338497)" d="M531.937 872.563C596.024 873.863 847.961 878.121 885.85 917.653C888.36 920.272 889.538 923.348 890.647 926.714C884.655 938.141 870.574 943.606 858.949 947.241C800.803 965.421 733.564 970.637 672.824 974.399Q626.342 977.394 579.777 978.552Q533.213 979.71 486.639 979.029Q440.065 978.349 393.555 975.83Q347.044 973.311 300.669 968.959C259.461 965.205 183.342 958.13 147.725 939.628C141.912 936.608 137.069 933.594 134.938 927.008C134.699 926.27 134.519 925.525 134.338 924.771C136.204 917.902 140.603 914.192 146.617 910.79C173.165 895.771 209.157 893.151 238.582 887.677C238.957 887.829 239.404 887.864 239.707 888.133C240.187 888.56 240.599 893.101 240.771 894.019Q241.353 897.179 242.318 900.244Q243.284 903.308 244.619 906.231C250.762 919.389 262.771 925.935 275.972 930.601C292.258 936.357 310.167 939.686 327.317 941.416C356.068 944.317 385.564 942.955 414.449 942.991L454.7 943.037C462.704 943.045 470.828 943.339 478.81 942.757C488.015 942.086 497.285 941.256 505.699 937.16C526.471 927.048 531.359 906.981 531.355 885.627C531.354 882.225 530.466 875.854 531.691 872.987C531.755 872.837 531.855 872.705 531.937 872.563Z"/>
	<path fill="#261C21" transform="scale(0.338497 0.338497)" d="M238.582 887.677L239.059 887.583C239.25 887.312 239.499 887.074 239.631 886.771C240.039 885.828 239.5 799.892 239.497 792.545L239.181 262.133L239.299 177.614C239.316 162.431 238.412 146.768 239.78 131.663C241.049 117.658 247.403 103.862 258.379 94.8504C264.834 89.55 272.233 86.7538 280.386 85.241C291.422 83.1935 303.104 83.3023 314.308 82.7775C327.869 82.1422 341.524 81.3757 355.101 81.5686C368.22 81.7549 381.382 82.7751 394.475 83.618Q428.151 85.7864 461.79 88.4653Q535.874 93.5044 609.809 100.404C688.882 108.01 773.363 118.201 827.093 183.545C881.305 249.478 877.36 341.661 869.42 421.581C862.752 488.694 844.072 556.041 789.82 600.354C719.797 657.549 615.418 651.4 530.953 642.905L531.47 810.314L531.906 860.592C531.95 864.113 531.085 869.286 531.937 872.563C531.855 872.705 531.755 872.837 531.691 872.987C530.466 875.854 531.354 882.225 531.355 885.627C531.359 906.981 526.471 927.048 505.699 937.16C497.285 941.256 488.015 942.086 478.81 942.757C470.828 943.339 462.704 943.045 454.7 943.037L414.449 942.991C385.564 942.955 356.068 944.317 327.317 941.416C310.167 939.686 292.258 936.357 275.972 930.601C262.771 925.935 250.762 919.389 244.619 906.231Q243.284 903.308 242.318 900.244Q241.353 897.179 240.771 894.019C240.599 893.101 240.187 888.56 239.707 888.133C239.404 887.864 238.957 887.829 238.582 887.677Z"/>
	<path fill="#496666" transform="scale(0.338497 0.338497)" d="M253.504 131.32C253.432 131.092 253.364 130.859 253.339 130.621C252.747 125.044 259.082 113.464 262.812 109.304C266.122 105.611 270.19 102.514 274.83 100.701C286.681 96.0689 305.899 97.0883 318.849 96.3836C307.925 106.013 303.969 114.827 301.862 129.134C298.337 128.852 294.882 128.809 291.357 129.075C278.686 129 265.952 128.519 253.504 131.32Z"/>
	<path fill="#496666" transform="scale(0.338497 0.338497)" d="M454.255 798.037C452.591 807.847 447.546 818.659 440.04 825.349C435.199 829.664 429.15 831.603 422.68 831.144C415.502 830.634 409.586 826.872 405.053 821.479C394.3 808.689 390.778 790.264 392.252 773.985C393.373 761.614 397.837 746.557 407.908 738.448C414.209 733.375 420.869 732.348 428.632 733.083C416.596 742.979 410.861 749.278 409.374 765.61C408.301 777.399 411.974 790.79 419.706 799.866C423.304 804.09 427.865 806.932 433.476 807.397C440.825 808.006 446.345 804.761 451.638 800.069C452.1 799.659 452.55 799.236 453.01 798.824C453.683 798.221 453.391 798.436 454.255 798.037Z"/>
	<path transform="scale(0.338497 0.338497)" d="M428.632 733.083C438.465 736.519 445.046 743.38 449.524 752.65C456.081 766.225 457.696 783.387 454.255 798.037C453.391 798.436 453.683 798.221 453.01 798.824C452.55 799.236 452.1 799.659 451.638 800.069C446.345 804.761 440.825 808.006 433.476 807.397C427.865 806.932 423.304 804.09 419.706 799.866C411.974 790.79 408.301 777.399 409.374 765.61C410.861 749.278 416.596 742.979 428.632 733.083Z"/>
	<path fill="#212125" transform="scale(0.338497 0.338497)" d="M849.236 462.854C849.47 463.745 849.402 464.451 849.286 465.353C848.027 475.171 844.556 485.087 841.655 494.521C829.664 533.529 812.148 566.051 779.331 591.371C728.409 630.66 661.982 636.601 599.876 634.853C577.322 634.219 554.996 632.886 532.605 630.01C531.859 629.691 531.172 629.612 530.749 628.87C529.413 626.527 530.653 622.544 531.487 620.145C534.406 611.752 540.312 603.745 549.434 601.66C558.526 599.581 582.801 603.248 593.642 603.673C647.246 605.779 707.569 601.657 756.442 577.964C803.166 555.314 832.712 510.687 849.236 462.854Z"/>
	<path fill="#283936" transform="scale(0.338497 0.338497)" d="M460.351 796.615L499.642 796.48C505.351 796.448 511.833 795.616 517.425 796.495C518.538 798.348 518.038 800.841 517.556 802.877C518.959 808.788 518.116 819.651 518.121 826.065Q517.909 851.652 518.252 877.237C518.524 892.82 519.314 907.999 507.592 919.96C498.135 929.61 487.445 930.114 474.654 930.234C445.651 930.506 416.588 929.973 387.574 930.06L357.876 930.159C349.736 930.185 340.866 930.751 332.881 929.094C328.313 928.146 323.857 925.246 320.594 921.983C315.322 916.711 311.893 910.734 310.204 903.495C306.972 889.641 308.918 873.681 308.987 859.492L308.991 797.005L315.012 797.015L387.169 796.662C390.891 810.624 396.831 825.148 410.006 832.732C416.485 836.462 424.679 837.698 431.912 835.676C441.299 833.052 448.578 825.15 453.097 816.825C456.502 810.555 458.88 803.587 460.351 796.615Z"/>
	<path fill="#496666" transform="scale(0.338497 0.338497)" d="M460.351 796.615L499.642 796.48C505.351 796.448 511.833 795.616 517.425 796.495C518.538 798.348 518.038 800.841 517.556 802.877C515.059 809.59 511.378 816.333 510.305 823.458C509.253 830.445 509.91 838.19 509.98 845.266Q510.066 864.768 510.548 884.265C510.695 891.373 511.23 898.793 509.994 905.827C509.227 910.186 507.582 914.62 504.762 918.067C500.329 923.485 494.119 923.473 487.733 923.998C490.513 920.701 493.089 917.369 495.2 913.595C497.642 909.228 499.329 904.573 499.857 899.579C500.321 895.189 498.916 814.607 498.25 812.659C497.98 811.866 498.015 812.464 498.075 811.64L498.347 811.428L498.118 810.706C497.632 810.749 497.543 810.722 497.035 810.964C494.11 812.355 485.773 823.916 482.678 827.021Q480.967 828.768 479.176 830.433Q477.386 832.099 475.52 833.679Q473.654 835.26 471.717 836.752Q469.78 838.245 467.776 839.646Q465.772 841.047 463.705 842.353Q461.638 843.66 459.513 844.869Q457.387 846.079 455.208 847.188Q453.029 848.298 450.801 849.305C434.049 856.8 414.462 858.384 397.195 851.645C376.541 843.585 364.549 828.835 355.919 808.894C346.305 810.517 335.715 810.022 325.998 810.015L326.418 860.5C326.483 870.378 326.199 880.281 326.487 890.154C327.135 912.323 334.209 911.589 348.087 924.813L348.607 925.312C341.176 924.622 332.532 924.572 326.613 919.384C321.095 914.548 318.061 907.545 316.683 900.462C314.668 890.107 316.046 878.432 316.054 867.872C316.07 844.356 316.493 820.479 315.012 797.015L387.169 796.662C390.891 810.624 396.831 825.148 410.006 832.732C416.485 836.462 424.679 837.698 431.912 835.676C441.299 833.052 448.578 825.15 453.097 816.825C456.502 810.555 458.88 803.587 460.351 796.615Z"/>
	<path fill="#212125" transform="scale(0.338497 0.338497)" d="M253.504 131.32C265.952 128.519 278.686 129 291.357 129.075Q296.661 129.451 301.977 129.558C300.872 160.969 301.467 192.505 301.49 223.934L301.465 370.842L301.505 787.496Q277.41 778.805 252.784 771.759L252.877 325.191L252.862 195.366C252.833 175.893 252.142 156.331 252.522 136.871C252.556 135.091 252.502 132.818 253.504 131.32Z"/>
	<path fill="#496666" transform="scale(0.338497 0.338497)" d="M309.308 131.517C308.161 125.407 312.281 115.075 315.66 110.214C320.998 102.535 328.896 97.9144 338.044 96.3415C353.653 93.6576 370.233 95.8347 385.96 96.7847Q414.477 98.4398 442.966 100.512Q517.867 105.499 592.575 112.826C630.712 116.452 669.336 119.611 706.699 128.426C733.354 134.715 760.509 144.787 782.918 160.832C826.427 191.984 848.196 235.471 856.644 287.283C861.681 318.176 861.599 349.611 859.109 380.738C858.471 388.704 858.013 396.824 856.718 404.709C855.213 413.871 852.042 422.794 849.348 431.657C840.703 460.102 831.288 490.876 813.642 515.255C812.364 517.022 809.787 521.174 807.793 521.891C805.587 528.24 797.001 536.397 792.093 541.154C759.658 572.595 715.528 584.974 671.897 590.938Q644.4 594.761 616.639 594.966C597.319 594.99 578.115 592.793 558.858 592.596C547.556 592.48 538.023 594.993 529.842 603.138C523.708 609.245 520.143 617.67 518.627 626.097C515.832 641.637 517.925 661.521 517.958 677.556L518.022 788.165C499.135 788.371 480.256 787.756 461.362 788.274C460.805 770.218 458.557 750.951 445.444 737.245C439.582 731.118 431.875 727.088 423.253 727.072C415.115 727.057 407.597 730.797 401.936 736.494C388.361 750.154 385.464 770.109 385.481 788.51L308.988 788.515L308.92 354.026L308.552 207.534C308.503 184.781 308.118 161.984 308.43 139.237C308.465 136.738 308.211 133.804 309.308 131.517Z"/>
	<path fill="#261C21" transform="scale(0.338497 0.338497)" d="M625.246 189.646C637.45 188.419 648.585 190.731 659.235 196.909C675.013 206.061 683.325 221.542 687.87 238.699C679.453 233.178 671.178 227.65 662.13 223.181C635.615 211.276 616.138 213.273 588.464 218.433C590.066 214.561 591.801 210.943 594.258 207.53C601.811 197.044 612.715 191.675 625.246 189.646Z"/>
	<path fill="#261C21" transform="scale(0.338497 0.338497)" d="M389.322 189.2C394.876 188.203 401.707 189.104 407.131 190.554C421.434 194.378 430.057 203.218 437.324 215.694C411.969 214.305 398.566 212.663 373.32 219.355C361.054 223.534 351.193 229.511 341.067 237.435C342.425 225.878 345.437 215.855 353 206.789C361.955 196.054 375.653 190.509 389.322 189.2Z"/>
	<defs>
		<linearGradient id="gradient_0" gradientUnits="userSpaceOnUse" x1="722.06427" y1="437.52029" x2="668.88373" y2="388.76791">
			<stop offset="0" stop-color="#909090"/>
			<stop offset="1" stop-color="#213233"/>
		</linearGradient>
	</defs>
	<path fill="url(#gradient_0)" transform="scale(0.338497 0.338497)" d="M744.623 329.5L745.772 329.116C748.275 330.714 749.171 335.805 749.788 338.599C755.891 366.249 754.316 395.202 738.753 419.506C724.999 440.986 702.387 452.84 678.001 458.106C654.575 463.165 591.092 465.198 568.296 460.006C561.149 458.378 554.335 454.668 547.942 451.174L547.749 450.793C553.112 452.181 557.515 456.043 562.748 457.772C566.719 459.084 571.056 460.084 575.189 460.699C579.953 461.408 603.676 463.298 607.191 461.4C607.818 461.061 607.892 460.053 607.999 459.408C608.055 459.075 608.06 458.734 608.101 458.398C608.348 456.407 610.122 454.894 610.863 453.03L609.588 454.069L609.782 452.638L610.885 452.711L610.877 452.762C610.618 452.695 610.359 452.624 610.098 452.561C606.582 451.722 601.489 452.535 597.787 452.414C578.661 451.788 559.296 450.076 543.298 438.353C540.744 436.481 535.771 433.425 534.199 430.662C533.977 430.272 533.871 429.889 533.887 429.448C536.023 430.538 538.417 433.581 540.362 435.189C542.263 436.759 544.331 438.107 546.412 439.424Q549.485 441.326 552.724 442.931Q555.963 444.535 559.338 445.828Q562.713 447.12 566.195 448.089Q569.677 449.058 573.235 449.695C582.241 451.399 591.19 450.926 600.288 451.17C622.784 451.773 645.762 453.373 667.916 448.302C693.237 442.507 716.327 429.755 730.363 407.281C744.029 385.4 750.401 354.859 744.623 329.5Z"/>
	<path fill="#261C21" transform="scale(0.338497 0.338497)" d="M430.022 449.565C437.049 452.177 443.313 456.245 450.203 459.122C470.245 467.492 492.639 472.882 514.363 473.889Q523.845 474.287 533.318 473.714Q542.791 473.142 552.156 471.605C555.078 471.133 563.575 468.976 566.164 470.208C567.368 470.781 568.128 472.731 568.393 473.945C569.194 477.618 568.079 481.814 567.313 485.423C563.826 501.862 557.337 516.975 548.071 530.975C545.369 534.636 542.614 538.182 539.375 541.392C529.384 551.298 516.438 556.777 502.333 556.696C484.829 556.596 467.72 548.769 455.505 536.394C429.925 510.48 429.865 483.273 430.022 449.565Z"/>
	<path fill="#496666" transform="scale(0.338497 0.338497)" d="M486.673 519.214C492.866 519.093 499.359 519.799 505.359 521.336C515.3 523.883 527.497 528.87 532.937 538.063Q532.426 538.842 531.862 539.585C526.37 546.739 512.951 549.254 504.616 550.395Q501.175 550.589 497.73 550.478C483.124 549.998 468.124 542.373 458.214 531.845C466.343 524.262 475.602 519.89 486.673 519.214Z"/>
	<path fill="#909090" transform="scale(0.338497 0.338497)" d="M435.021 457.585C441.889 460.368 448.32 464.243 455.287 466.849C492.148 480.636 523.752 480.17 562.19 476.345C561.867 483.337 559.563 488.687 555.415 494.255C550.94 498.033 545.625 500.145 539.999 501.568C510.966 508.912 461.001 499.179 435.165 483.827Q434.963 470.707 435.021 457.585Z"/>
	<path fill="#909090" transform="scale(0.338497 0.338497)" d="M309.308 131.517C308.161 125.407 312.281 115.075 315.66 110.214C320.998 102.535 328.896 97.9144 338.044 96.3415C353.653 93.6576 370.233 95.8347 385.96 96.7847Q414.477 98.4398 442.966 100.512Q517.867 105.499 592.575 112.826C630.712 116.452 669.336 119.611 706.699 128.426C733.354 134.715 760.509 144.787 782.918 160.832C826.427 191.984 848.196 235.471 856.644 287.283C861.681 318.176 861.599 349.611 859.109 380.738C858.471 388.704 858.013 396.824 856.718 404.709C855.213 413.871 852.042 422.794 849.348 431.657C840.703 460.102 831.288 490.876 813.642 515.255C812.364 517.022 809.787 521.174 807.793 521.891C811.434 511.116 817.819 501.147 822.154 490.611Q826.475 480.111 830.063 469.338Q833.651 458.565 836.49 447.571Q839.328 436.577 841.403 425.414Q843.479 414.251 844.781 402.971C852.93 337.917 849.415 257.698 807.453 203.845C770.609 156.562 723.091 140.834 665.745 133.691C596.341 125.046 526.696 120.138 456.981 114.989Q424.899 112.628 392.78 110.843C378.7 110.003 363.971 108.42 349.892 109.597C343.382 110.142 337.412 111.91 332.222 116.041C314.97 129.771 319.797 162.092 319.438 181.903C319.209 194.59 318.454 206.987 316.906 219.571C315.747 204.578 313.764 189.64 312.677 174.649C311.656 160.569 313.173 145.152 309.308 131.517Z"/>
	<path fill="#261C21" transform="scale(0.338497 0.338497)" d="M393.779 267.195C393.813 267.188 393.847 267.179 393.882 267.175C408.162 265.664 423.847 270.597 435.54 278.725C452.489 290.507 463.425 309.043 466.947 329.262Q467.125 330.28 467.277 331.303Q467.43 332.326 467.558 333.352Q467.686 334.378 467.788 335.406Q467.891 336.435 467.968 337.466Q468.045 338.497 468.097 339.53Q468.149 340.562 468.176 341.596Q468.203 342.629 468.204 343.663Q468.206 344.697 468.182 345.731Q468.158 346.764 468.109 347.797Q468.059 348.83 467.985 349.861Q467.91 350.892 467.811 351.921Q467.711 352.95 467.586 353.977Q467.461 355.003 467.311 356.026Q467.161 357.049 466.987 358.068Q466.812 359.087 466.612 360.101Q466.412 361.116 466.187 362.125Q465.963 363.134 465.713 364.138Q465.464 365.141 465.19 366.138Q464.917 367.135 464.618 368.125Q464.32 369.115 463.998 370.097Q463.676 371.08 463.33 372.054Q462.984 373.028 462.614 373.994Q462.244 374.959 461.85 375.915Q461.457 376.871 461.04 377.817Q460.623 378.764 460.184 379.699Q459.744 380.635 459.281 381.56Q458.819 382.484 458.334 383.397Q457.848 384.31 457.341 385.211Q456.834 386.112 456.305 387Q455.776 387.889 455.225 388.764Q454.674 389.639 454.102 390.5Q453.53 391.361 452.937 392.208C440.437 409.707 424.578 419.315 403.509 422.916Q402.411 423.097 401.306 423.231C386.207 425.035 368.979 418.521 357.257 409.265C340.682 396.176 330.746 375.794 328.464 354.98C326.092 333.342 331.956 310.009 345.791 293C358.202 277.741 374.28 269.246 393.779 267.195Z"/>
	<path fill="#496666" transform="scale(0.338497 0.338497)" d="M458.438 324.554C458.431 323.809 458.417 323.06 458.445 322.315C458.485 321.239 458.295 319.615 459.076 318.866C459.159 319.017 459.249 319.164 459.323 319.319C465.156 331.663 463.323 355.462 459.169 368.24C453.768 384.855 442.239 402.335 426.329 410.453C423.415 411.939 420.315 413.694 417.232 414.764C405.323 418.898 390.601 419.231 378.626 415.242C362.129 409.746 348.113 395.943 340.552 380.485C331.227 361.419 330.611 337.585 337.6 317.679C339.11 313.381 344.472 301.082 348.637 299.079C346.264 326.673 347.691 350.867 366.334 373.2C373.35 381.604 382.724 388.911 393.994 389.819C395.312 389.925 396.639 389.962 397.96 389.999C400.554 391.448 403.206 393.015 406.042 393.921C413.296 396.24 420.998 394.511 427.068 390.006C428.377 389.034 429.582 387.52 431.065 386.873C431.229 386.801 431.406 386.761 431.577 386.705C436.142 386.366 441.488 380.916 444.35 377.635C456.35 363.876 459.601 342.163 458.438 324.554Z"/>
	<path fill="#909090" transform="scale(0.338497 0.338497)" d="M348.637 299.079C352.334 289.482 365.366 281.336 374.328 277.38C388.968 270.918 405.087 270.369 420.003 276.208C435.796 282.39 449.578 295.865 456.306 311.417C458.303 316.033 457.227 320.049 458.438 324.554C459.601 342.163 456.35 363.876 444.35 377.635C441.488 380.916 436.142 386.366 431.577 386.705C431.406 386.761 431.229 386.801 431.065 386.873C429.582 387.52 428.377 389.034 427.068 390.006C420.998 394.511 413.296 396.24 406.042 393.921C403.206 393.015 400.554 391.448 397.96 389.999C396.639 389.962 395.312 389.925 393.994 389.819C382.724 388.911 373.35 381.604 366.334 373.2C347.691 350.867 346.264 326.673 348.637 299.079Z"/>
	<path fill="#261C21" transform="scale(0.338497 0.338497)" d="M397.96 389.999C397.553 388.477 396.023 386.991 395.075 385.708C389.671 378.392 387.664 371.131 389.054 362.133C390.241 354.448 394.142 347.067 400.628 342.581C405.837 338.979 412.364 337.339 418.611 338.632Q419.197 338.757 419.776 338.91Q420.355 339.064 420.926 339.246Q421.496 339.429 422.057 339.639Q422.618 339.849 423.168 340.087Q423.718 340.325 424.255 340.59Q424.792 340.855 425.316 341.147Q425.839 341.438 426.348 341.755Q426.856 342.072 427.348 342.414Q427.84 342.756 428.314 343.122Q428.789 343.487 429.244 343.876Q429.7 344.265 430.136 344.676Q430.572 345.088 430.986 345.52Q431.401 345.952 431.794 346.404Q432.187 346.857 432.557 347.328Q432.927 347.799 433.273 348.288Q433.619 348.777 433.94 349.283C439.475 357.847 440.411 368.93 435.711 378.046C434.521 380.353 431.91 383.607 431.583 386.113C431.558 386.309 431.579 386.508 431.577 386.705C431.406 386.761 431.229 386.801 431.065 386.873C429.582 387.52 428.377 389.034 427.068 390.006C420.998 394.511 413.296 396.24 406.042 393.921C403.206 393.015 400.554 391.448 397.96 389.999Z"/>
	<path fill="#909090" transform="scale(0.338497 0.338497)" d="M402.129 348.461C403.131 348.439 404.094 348.439 405.082 348.634C407.623 349.135 410.118 350.689 411.489 352.912C412.905 355.209 413.138 358.023 412.378 360.586C411.264 364.347 408.78 366.084 405.515 367.945C403.571 367.909 401.393 367.471 399.677 366.539C396.44 364.783 395.345 361.813 394.249 358.542C394.52 357.461 394.79 356.378 395.133 355.317C396.326 351.628 398.921 350.17 402.129 348.461Z"/>
	<path fill="#261C21" transform="scale(0.338497 0.338497)" d="M533.887 429.448C527.601 421.916 522.863 414.2 519.796 404.83C511.489 379.446 512.44 319.666 517.339 292.458C519.015 283.154 521.599 273.863 525.968 265.44C531.589 254.602 540.503 246.392 552.247 242.773C565.609 238.656 580.439 239.287 594.264 239.796C627.143 241.007 662.439 244.375 692.005 259.979C712.832 270.971 729.788 288.213 738.347 310.399C739.816 314.21 741.251 318.087 742.425 321.999C742.978 323.844 743.175 327.233 744.068 328.773C744.221 329.037 744.438 329.258 744.623 329.5C750.401 354.859 744.029 385.4 730.363 407.281C716.327 429.755 693.237 442.507 667.916 448.302C645.762 453.373 622.784 451.773 600.288 451.17C591.19 450.926 582.241 451.399 573.235 449.695Q569.677 449.058 566.195 448.089Q562.713 447.12 559.338 445.828Q555.963 444.535 552.724 442.931Q549.485 441.326 546.412 439.424C544.331 438.107 542.263 436.759 540.362 435.189C538.417 433.581 536.023 430.538 533.887 429.448Z"/>
	<path fill="#496666" transform="scale(0.338497 0.338497)" d="M703.028 334.189C704.138 337.132 704.063 341.118 704.055 344.239C704.022 356.633 701.907 367.923 696.729 379.239C689.547 394.936 676.959 409.008 660.468 415.027C646.628 420.078 632.639 419.125 619.15 413.482C628.429 408.132 636.632 401.823 645.278 395.569C653.143 389.881 661.068 384.309 668.878 378.537C679.942 370.36 692.691 362.375 702.153 352.357C705.187 349.145 703.057 338.489 703.028 334.189Z"/>
	<path fill="#212125" transform="scale(0.338497 0.338497)" d="M574.794 251.713C582.495 250.967 590.67 251.589 598.393 251.862C630.396 252.994 664.944 256.714 692.657 274.049C711.816 286.033 726.681 305.367 731.749 327.524C737.099 350.919 732.803 379.505 719.996 399.892C705.437 423.067 682.367 431.673 656.934 437.522C656.882 432.346 656.628 427.162 656.453 421.988C663.081 419.681 669.124 417.248 675.239 413.734C676.888 412.536 678.536 411.327 680.095 410.012C697.363 395.452 707.152 375.317 708.936 352.889C710.745 330.151 704.348 306.783 689.287 289.386Q688.209 288.152 687.071 286.972Q685.934 285.793 684.741 284.67Q683.547 283.547 682.3 282.484Q681.053 281.421 679.756 280.42Q678.458 279.419 677.113 278.483Q675.769 277.546 674.38 276.677Q672.991 275.807 671.561 275.007Q670.131 274.206 668.664 273.477Q667.197 272.747 665.695 272.09Q664.194 271.433 662.663 270.85Q661.131 270.267 659.573 269.759Q658.015 269.252 656.434 268.821Q654.853 268.391 653.253 268.038Q651.653 267.685 650.037 267.411Q648.422 267.136 646.795 266.941Q645.168 266.746 643.533 266.631C625.74 265.356 611.625 273.71 598.626 285.002C574.345 273.782 556.1 274.784 531.483 283.568C533.479 276.152 536.832 268.601 542.021 262.853C550.77 253.161 562.544 252.378 574.794 251.713Z"/>
	<path fill="#496666" transform="scale(0.338497 0.338497)" d="M558.474 289.207C569.511 288.046 580.683 291.182 591.116 294.381C582.257 309.802 575.873 324.326 575.393 342.414C574.778 365.537 581.539 388.291 597.788 405.218C610.334 418.288 625.606 423.688 643.481 424.036Q643.371 431.518 643.114 438.997Q634.5 439.437 625.875 439.531C599.299 440.274 569.965 442.529 547.826 424.908C534.309 414.149 529.027 398.643 527.185 381.966C525.494 366.656 524.547 321.101 528.208 307.899C528.93 305.297 530.246 303.325 531.94 301.257C538.399 293.371 548.685 290.168 558.474 289.207Z"/>
	<defs>
		<linearGradient id="gradient_1" gradientUnits="userSpaceOnUse" x1="620.39417" y1="277.61911" x2="659.58887" y2="399.8002">
			<stop offset="0" stop-color="gray"/>
			<stop offset="1" stop-color="#354A4C"/>
		</linearGradient>
	</defs>
	<path fill="url(#gradient_1)" transform="scale(0.338497 0.338497)" d="M619.15 413.482C606.268 407.49 596.449 397.21 590.16 384.544C580.021 364.125 578.151 339.311 585.612 317.774C591.401 301.066 602.892 285.81 619.158 278.136C631.487 272.32 647.404 271.564 660.237 276.205C670.522 279.925 682.707 287.138 687.284 297.592C691.48 307.174 692.238 321.046 688.905 330.99C686.975 336.748 684.007 341.96 681.911 347.608C683.19 346.255 683.978 344.34 684.853 342.689C689.973 333.035 692.506 322.143 691.262 311.202C690.842 307.515 688.843 303.174 689.272 299.56C690.775 301.148 691.598 303.124 692.71 304.994C698.501 314.724 700.499 323.286 703.028 334.189C703.057 338.489 705.187 349.145 702.153 352.357C692.691 362.375 679.942 370.36 668.878 378.537C661.068 384.309 653.143 389.881 645.278 395.569C636.632 401.823 628.429 408.132 619.15 413.482Z"/>
	<path fill="#261C21" transform="scale(0.338497 0.338497)" d="M616.395 338.655C621.439 338.391 626.006 338.59 630.617 340.97C638.735 345.16 642.757 353.607 645.255 361.944C645.5 362.761 647.775 370.191 647.485 370.706C647.396 370.865 646.054 371.541 645.916 371.727C645.58 372.185 645.245 375.605 645.027 376.441Q644.15 379.783 642.442 382.787C638.94 388.969 633.864 392.052 627.22 393.908C621.914 395.016 616.532 394.417 611.645 392.009C605.194 388.83 600.937 383.109 598.588 376.449C595.705 368.278 596.362 360.461 600.151 352.681C603.66 345.477 608.914 341.207 616.395 338.655Z"/>
	<path fill="#909090" transform="scale(0.338497 0.338497)" d="M612.548 348.491C613.924 348.441 615.389 348.443 616.734 348.791C619.062 349.394 621.164 351.027 622.366 353.103Q622.605 353.526 622.801 353.97Q622.996 354.414 623.146 354.876Q623.297 355.338 623.4 355.812Q623.503 356.286 623.558 356.769Q623.613 357.251 623.619 357.737Q623.626 358.222 623.583 358.706Q623.541 359.19 623.45 359.667Q623.36 360.143 623.222 360.609C622.222 364.06 620.072 365.78 617.06 367.494C615.845 367.539 614.577 367.604 613.376 367.369C610.91 366.885 608.483 365.003 607.251 362.833Q607.001 362.39 606.799 361.924Q606.596 361.458 606.443 360.973Q606.29 360.488 606.187 359.99Q606.084 359.492 606.033 358.987Q605.982 358.481 605.984 357.973Q605.985 357.464 606.039 356.959Q606.093 356.453 606.198 355.956Q606.304 355.459 606.46 354.975C607.509 351.621 609.578 350.113 612.548 348.491Z"/>
</svg>
