<?xml version="1.0" encoding="utf-8" ?>
<svg xmlns="http://www.w3.org/2000/svg" xmlns:xlink="http://www.w3.org/1999/xlink" width="737" height="737">
	<path fill="white" transform="scale(0.719727 0.719727)" d="M84.5133 306.863C111.128 315.332 152.358 330.245 167.867 354.525C167.016 354.916 166.249 355.021 165.313 354.899C154.787 353.521 143.442 348.77 133.376 345.456Q99.8686 334.304 66.5707 322.54C67.1327 320.546 67.7095 318.626 68.4921 316.708C73.8036 317.697 79.1198 318.647 84.3793 319.89C84.0689 315.562 84.3544 311.195 84.5133 306.863Z"/>
	<path fill="#A1B8CA" transform="scale(0.719727 0.719727)" d="M131.106 712.455C131.872 717.535 131.493 722.943 131.562 728.09Q131.784 739.226 132.207 750.356L133.667 795.948C133.875 801.958 134.581 808.065 134.518 814.065C121.337 806.882 98.6508 787.834 92.4602 774.359C89.6089 768.152 89.4932 761.667 91.8656 755.282C97.2944 740.671 117.396 725.435 131.232 719.215L131.106 712.455Z"/>
	<path fill="#A1B8CA" transform="scale(0.719727 0.719727)" d="M901.922 718.281C904.771 718.112 907.278 718.508 909.452 720.512C914.079 724.776 914.288 733.372 914.324 739.237C914.414 753.827 907.709 785.286 901.235 798.79C879.054 783.486 857.557 767.147 835.681 751.404C856.536 735.211 876.146 725.723 901.416 718.42L901.922 718.281Z"/>
	<path fill="white" transform="scale(0.719727 0.719727)" d="M780.002 836.086C781.195 830.442 786.059 824.737 788.756 819.631C801.703 795.116 813.865 769.424 835.681 751.404C857.557 767.147 879.054 783.486 901.235 798.79C923.066 814.773 954.634 834.337 958.89 863.106C960.703 875.362 957.167 888.184 949.813 898.082C942.406 908.051 931.068 914.604 919.368 918.279C914.391 919.842 909.223 920.954 904.311 922.683C898.412 924.797 890.805 925.382 884.586 926.468C855.05 931.625 825.22 934.766 795.392 937.638C787.88 918.423 793.691 891.81 802.217 873.702C804.64 868.555 809.341 863.179 810.761 857.785C810.845 857.468 810.914 857.149 810.991 856.831C813.384 856.37 815.76 855.768 818.136 855.221C805.666 848.417 792.598 842.683 780.002 836.086Z"/>
	<path fill="#9FD7D6" transform="scale(0.719727 0.719727)" d="M229.359 310.994C208.964 311.073 189.414 306.317 171.837 295.836Q170.663 295.137 169.508 294.408Q168.352 293.68 167.215 292.923Q166.078 292.166 164.96 291.381Q163.842 290.596 162.744 289.783Q161.646 288.97 160.568 288.13Q159.491 287.29 158.435 286.423Q157.379 285.557 156.345 284.664Q155.311 283.771 154.299 282.853Q153.288 281.935 152.299 280.992Q151.311 280.049 150.347 279.081Q149.382 278.113 148.443 277.122Q147.503 276.131 146.588 275.116Q145.673 274.102 144.784 273.064Q143.894 272.027 143.031 270.968Q142.168 269.91 141.332 268.829Q140.495 267.749 139.686 266.649Q138.877 265.548 138.096 264.427Q137.314 263.307 136.561 262.167Q135.808 261.027 135.083 259.869Q134.359 258.711 133.663 257.535Q132.968 256.359 132.302 255.166Q131.636 253.973 131.001 252.764Q130.365 251.555 129.759 250.331Q129.154 249.106 128.579 247.867Q128.005 246.627 127.461 245.374Q126.918 244.12 126.405 242.854Q125.893 241.587 125.413 240.309Q124.933 239.03 124.485 237.739Q124.036 236.449 123.62 235.147Q123.205 233.846 122.821 232.535Q122.438 231.224 122.088 229.903Q121.737 228.583 121.42 227.254Q121.086 225.919 120.786 224.576Q120.486 223.233 120.219 221.883Q119.953 220.533 119.72 219.177Q119.487 217.82 119.288 216.459Q119.089 215.097 118.924 213.731Q118.759 212.365 118.628 210.995Q118.497 209.625 118.401 208.252Q118.304 206.879 118.242 205.505Q118.179 204.13 118.151 202.754Q118.123 201.378 118.129 200.002Q118.136 198.626 118.176 197.251Q118.217 195.875 118.292 194.501Q118.367 193.127 118.476 191.755Q118.585 190.383 118.728 189.015Q118.872 187.646 119.049 186.281Q119.226 184.917 119.438 183.557Q119.649 182.197 119.894 180.843Q120.14 179.489 120.419 178.141Q120.698 176.794 121.01 175.454Q121.322 174.114 121.668 172.782Q122.014 171.45 122.393 170.127Q122.772 168.804 123.184 167.491Q123.595 166.178 124.04 164.875Q124.484 163.573 124.961 162.282Q125.438 160.991 125.947 159.712Q126.455 158.434 126.996 157.168Q127.536 155.903 128.108 154.651Q128.68 153.4 129.283 152.163Q129.886 150.926 130.52 149.704Q131.153 148.482 131.817 147.277Q132.481 146.072 133.175 144.883Q133.869 143.695 134.592 142.524Q135.308 141.358 136.052 140.209Q136.796 139.06 137.567 137.93Q138.339 136.799 139.138 135.688Q139.937 134.577 140.763 133.485Q141.588 132.394 142.44 131.323Q143.292 130.252 144.17 129.202Q145.048 128.152 145.951 127.123Q146.854 126.095 147.782 125.089Q148.709 124.082 149.661 123.099Q150.613 122.116 151.589 121.156Q152.564 120.196 153.563 119.26Q154.562 118.324 155.583 117.413Q156.604 116.502 157.647 115.615Q158.69 114.729 159.754 113.868Q160.818 113.008 161.903 112.173Q162.987 111.339 164.092 110.531Q165.197 109.723 166.321 108.942Q167.445 108.161 168.588 107.408Q169.73 106.655 170.891 105.929Q172.051 105.204 173.229 104.507Q174.407 103.81 175.602 103.142Q176.796 102.474 178.007 101.836Q179.217 101.197 180.443 100.588Q181.668 99.9786 182.908 99.3994Q184.148 98.8202 185.402 98.2713Q186.656 97.7224 187.922 97.2041Q189.189 96.6859 190.468 96.1986Q191.747 95.7112 193.037 95.2552Q194.328 94.7991 195.629 94.3745Q196.93 93.9499 198.241 93.5571Q199.552 93.1642 200.872 92.8034Q202.192 92.4426 203.521 92.1139C221.75 87.769 252.62 87.1978 269.175 97.291C267.407 101.193 261.956 104.549 259.222 108.041C256.277 111.802 254.318 116.475 252.344 120.786C241.884 126.937 234.539 133.331 231.414 145.541C228.042 158.718 229.606 171.509 236.658 183.222C245.092 197.232 263.482 211.812 259.042 230.167C257.677 235.809 253.962 239.733 249.062 242.611C236.145 250.197 224.365 251.89 219.833 268.424C215.809 283.103 221.241 297.002 228.559 309.621L229.359 310.994Z"/>
	<path fill="#A1C5CC" transform="scale(0.719727 0.719727)" d="M435.876 874.061C453.863 875.548 472.04 874.995 490.078 874.973L579.709 874.535C585.386 883.23 591.824 891.367 597.492 900.023Q601.031 903.917 604.495 907.878C613.764 914.884 621.312 924.029 630.535 931.249C637.812 936.946 646.318 940.428 653.607 945.935C654.072 946.286 654.546 946.624 655.013 946.973C664.968 947.139 675.71 947.603 685.599 946.574C705.615 946.18 725.795 943.91 745.729 942.121C762.261 940.638 778.928 939.727 795.392 937.638C825.22 934.766 855.05 931.625 884.586 926.468C890.805 925.382 898.412 924.797 904.311 922.683C917.682 924.879 977.652 932.11 984.882 941.742C985.429 942.471 985.368 942.663 985.486 943.513C984.096 946.58 979.039 948.141 976.068 949.269C965.293 953.364 953.056 955.099 941.749 957.119C899.604 964.649 856.483 968.307 813.812 971.441Q715.062 978.366 616.109 981.138Q517.155 983.911 418.172 982.526C321.74 981.184 225.516 978.273 129.92 964.606C106.243 961.22 82.7814 957.161 59.7186 950.715C53.7382 949.043 47.2927 947.486 41.6875 944.785C40.749 944.333 40.0244 943.823 39.2374 943.151L38.9659 941.992C51.5005 935.984 65.1487 937.123 77.5092 932.497C82.9132 930.475 87.6881 925.469 92.3319 922.07C95.6661 919.629 99.1236 917.52 102.726 915.503C101.726 917.604 100.365 920.008 100.071 922.327C99.8372 924.178 100.296 926.053 101.604 927.437C102.786 928.688 104.281 929.105 105.959 929.137C119.3 929.387 157.344 901.331 167.448 891.229C169.421 892.07 170.644 895.634 171.418 897.593C174.815 906.188 175.132 914.581 173.732 923.63C181.62 923.507 193.735 920.375 202.018 919.197C216.289 917.166 230.627 916.273 245.001 915.318C255.152 913.562 265.205 912.729 275.495 913.512C273.877 920.914 272.287 928.329 270.558 935.706C266.512 939.779 262.892 944.592 259.122 948.943Q249.274 960.207 239.132 971.206C244.247 970.108 249.586 969.605 254.769 968.809L277.669 965.064C282.466 964.295 287.721 963.833 292.338 962.357C294.931 961.528 297.17 960.185 299.038 958.192C305.552 951.24 316.253 927.535 321.316 917.934C326.314 923.46 330.999 929.053 335.156 935.257C338.841 931.996 342.947 929.15 346.888 926.206C344.89 921.039 342.597 915.47 341.48 910.049C343.232 909.831 344.998 909.749 346.759 909.638C345.302 909.653 343.534 909.815 342.125 909.492C341.112 909.26 341.06 909.074 340.58 908.236C341.218 906.741 343.12 906.269 344.601 905.807C358.3 901.534 372.234 898.027 385.869 893.532C402.806 887.95 419.491 881.089 435.876 874.061ZM435.876 874.061C419.491 881.089 402.806 887.95 385.869 893.532C372.234 898.027 358.3 901.534 344.601 905.807C343.12 906.269 341.218 906.741 340.58 908.236C341.06 909.074 341.112 909.26 342.125 909.492C343.534 909.815 345.302 909.653 346.759 909.638C351.815 909.256 357.085 909.56 362.178 909.431C370.619 909.218 379.063 908.675 387.502 908.36C409.181 907.55 430.803 906.199 452.502 905.748C470.1 905.383 488.368 905.906 505.88 904.089C507.631 903.907 508.732 903.659 510.168 902.633C512.748 899.2 515.863 895.945 518.908 892.925C524.904 886.98 533.302 879.856 542.271 880.084C549.913 880.279 554.315 885.496 559.222 890.608C563.092 893.786 567.254 896.397 571.348 899.256C578.811 901.689 589.627 900.66 597.492 900.023C591.824 891.367 585.386 883.23 579.709 874.535L490.078 874.973C472.04 874.995 453.863 875.548 435.876 874.061Z"/>
	<path fill="#A1B8CA" transform="scale(0.719727 0.719727)" d="M167.448 891.229C169.421 892.07 170.644 895.634 171.418 897.593C174.815 906.188 175.132 914.581 173.732 923.63C171.443 931.908 171.477 942.242 171.48 950.825Q163.256 951.635 155.062 952.705C155.07 946.647 156.236 937.571 154.068 931.986C152.409 931.157 149.931 931.61 148.23 932.132C137.207 935.517 133.422 947.349 123.502 950.913C110.621 955.541 67.574 948.527 52.6997 945.683C48.1976 944.822 43.406 942.38 38.9659 941.992C51.5005 935.984 65.1487 937.123 77.5092 932.497C82.9132 930.475 87.6881 925.469 92.3319 922.07C95.6661 919.629 99.1236 917.52 102.726 915.503C101.726 917.604 100.365 920.008 100.071 922.327C99.8372 924.178 100.296 926.053 101.604 927.437C102.786 928.688 104.281 929.105 105.959 929.137C119.3 929.387 157.344 901.331 167.448 891.229Z"/>
	<path fill="#9FD7D6" transform="scale(0.719727 0.719727)" d="M510.168 902.633C512.748 899.2 515.863 895.945 518.908 892.925C524.904 886.98 533.302 879.856 542.271 880.084C549.913 880.279 554.315 885.496 559.222 890.608C563.092 893.786 567.254 896.397 571.348 899.256C578.811 901.689 589.627 900.66 597.492 900.023Q601.031 903.917 604.495 907.878C613.764 914.884 621.312 924.029 630.535 931.249C637.812 936.946 646.318 940.428 653.607 945.935C654.072 946.286 654.546 946.624 655.013 946.973Q623.112 945.752 591.171 945.752C576.768 945.681 562.071 945.547 547.705 946.623C518.034 948.843 488.577 955.278 458.711 955.049C452.991 956.113 447.033 956.624 441.259 957.412C440.472 956.657 440.041 956.247 439.995 955.05C439.771 949.313 452.013 937.892 455.986 934.307C472.498 919.409 479.468 913.179 502.377 914.351L510.168 902.633Z"/>
	<path fill="#A1C5CC" transform="scale(0.719727 0.719727)" d="M571.348 899.256C578.811 901.689 589.627 900.66 597.492 900.023Q601.031 903.917 604.495 907.878C603.187 908.342 601.858 908.542 600.473 908.636C590.075 909.341 579.244 906.183 571.348 899.256Z"/>
	<path fill="white" transform="scale(0.719727 0.719727)" d="M510.168 902.633C512.748 899.2 515.863 895.945 518.908 892.925C524.904 886.98 533.302 879.856 542.271 880.084C549.913 880.279 554.315 885.496 559.222 890.608C550.205 901.31 540.382 913.51 528.844 921.544C520.035 927.678 509.094 930.195 499.297 934.288C490.436 937.99 482.22 943.051 473.716 947.465C468.802 950.016 463.321 952.03 458.711 955.049C452.991 956.113 447.033 956.624 441.259 957.412C440.472 956.657 440.041 956.247 439.995 955.05C439.771 949.313 452.013 937.892 455.986 934.307C472.498 919.409 479.468 913.179 502.377 914.351L510.168 902.633Z"/>
	<path fill="#9FD7D6" transform="scale(0.719727 0.719727)" d="M898.655 529.616L901.321 526.229C902.861 533.929 902.064 542.886 902.067 550.749L902.059 593.438L902.094 675.652C902.091 689.828 902.553 704.124 901.922 718.281L901.416 718.42C876.146 725.723 856.536 735.211 835.681 751.404C813.865 769.424 801.703 795.116 788.756 819.631C786.059 824.737 781.195 830.442 780.002 836.086C792.598 842.683 805.666 848.417 818.136 855.221C815.76 855.768 813.384 856.37 810.991 856.831C810.914 857.149 810.845 857.468 810.761 857.785C809.341 863.179 804.64 868.555 802.217 873.702C793.691 891.81 787.88 918.423 795.392 937.638C778.928 939.727 762.261 940.638 745.729 942.121C725.795 943.91 705.615 946.18 685.599 946.574C675.71 947.603 664.968 947.139 655.013 946.973C654.546 946.624 654.072 946.286 653.607 945.935C646.318 940.428 637.812 936.946 630.535 931.249C621.312 924.029 613.764 914.884 604.495 907.878Q601.031 903.917 597.492 900.023C591.824 891.367 585.386 883.23 579.709 874.535C574.756 865.846 570.299 857.168 566.952 847.705Q565.879 844.581 564.931 841.417Q563.983 838.253 563.16 835.054Q562.338 831.855 561.642 828.626Q560.947 825.397 560.379 822.143Q559.812 818.889 559.373 815.615Q558.935 812.341 558.626 809.053Q558.318 805.764 558.139 802.466Q557.961 799.168 557.913 795.865Q557.865 792.562 557.947 789.26Q558.03 785.958 558.243 782.662Q558.456 779.366 558.799 776.081Q559.142 772.795 559.614 769.526Q560.087 766.257 560.688 763.009Q561.289 759.761 562.019 756.54Q562.748 753.318 563.604 750.128Q564.46 746.938 565.441 743.784C569.711 729.959 575.578 716.876 581.428 703.667Q590.184 683.575 599.721 663.841C600.029 663.155 600.096 662.047 600.245 661.289C602.027 661.701 603.85 662.671 605.616 663.24C612.145 665.344 618.689 666.22 625.446 664.698C650.428 659.07 699.874 593.266 714.311 570.754C718.434 565.355 721.774 559.254 725.486 553.559Q737.407 550.9 749.077 547.298C756.633 550.972 768.978 551.983 777.451 553.611C783.522 554.777 789.436 556.199 795.441 557.644C805.469 559.009 815.531 560.857 825.581 561.962L826.595 562.374C831.465 562.882 836.475 564.22 841.257 565.273C851.043 567.426 860.747 569.708 870.391 572.433C878.871 557.772 887.562 542.899 897.147 528.938L898.655 529.616Z"/>
	<path fill="#528B8A" transform="scale(0.719727 0.719727)" d="M738.734 705.241C742.16 710.358 745.296 720.796 749.866 724.331C743.161 725.767 736.404 728.26 729.807 730.196C699.079 739.215 669.402 751.543 638.704 760.468C676.073 741.492 705.212 732.518 738.734 705.241Z"/>
	<path fill="white" transform="scale(0.719727 0.719727)" d="M759.625 870.053C760.201 867.492 777.531 839.196 780.002 836.086C792.598 842.683 805.666 848.417 818.136 855.221C815.76 855.768 813.384 856.37 810.991 856.831C810.914 857.149 810.845 857.468 810.761 857.785C809.341 863.179 804.64 868.555 802.217 873.702C793.691 891.81 787.88 918.423 795.392 937.638C778.928 939.727 762.261 940.638 745.729 942.121C725.795 943.91 705.615 946.18 685.599 946.574C682.884 946.349 680.121 946.378 677.395 946.315C704.302 936.304 727.274 914.612 744.212 891.923C749.351 885.038 753.446 876.611 759.313 870.374C759.415 870.265 759.521 870.16 759.625 870.053Z"/>
	<path fill="#A1B8CA" transform="scale(0.719727 0.719727)" d="M759.625 870.053C760.201 867.492 777.531 839.196 780.002 836.086C792.598 842.683 805.666 848.417 818.136 855.221C815.76 855.768 813.384 856.37 810.991 856.831C799.75 859.093 788.439 861.443 777.392 864.528C771.417 866.197 765.585 868.335 759.625 870.053Z"/>
	<path fill="#A1C5CC" transform="scale(0.719727 0.719727)" d="M898.655 529.616L901.321 526.229C902.861 533.929 902.064 542.886 902.067 550.749L902.059 593.438L902.094 675.652C902.091 689.828 902.553 704.124 901.922 718.281L901.416 718.42C894.767 716.278 887.36 715.953 880.434 715.293C839.978 711.437 789.225 714.048 749.866 724.331C745.296 720.796 742.16 710.358 738.734 705.241C727.487 687.11 718.84 667.238 720.733 645.51C720.582 644.802 720.662 643.915 719.971 643.543C716.85 641.863 667.566 642.981 663.7 644.855C659.414 646.932 655.84 655.07 653.057 659.103C645.55 669.978 631.494 685.521 616.511 681.325C604.674 678.01 605.777 670.135 599.721 663.841C600.029 663.155 600.096 662.047 600.245 661.289C602.027 661.701 603.85 662.671 605.616 663.24C612.145 665.344 618.689 666.22 625.446 664.698C650.428 659.07 699.874 593.266 714.311 570.754C718.434 565.355 721.774 559.254 725.486 553.559Q737.407 550.9 749.077 547.298C756.633 550.972 768.978 551.983 777.451 553.611C783.522 554.777 789.436 556.199 795.441 557.644C805.469 559.009 815.531 560.857 825.581 561.962L826.595 562.374C831.465 562.882 836.475 564.22 841.257 565.273C851.043 567.426 860.747 569.708 870.391 572.433C878.871 557.772 887.562 542.899 897.147 528.938L898.655 529.616Z"/>
	<defs>
		<linearGradient id="gradient_0" gradientUnits="userSpaceOnUse" x1="851.98413" y1="581.3075" x2="897.84161" y2="555.35699">
			<stop offset="0" stop-color="#6AA5A5"/>
			<stop offset="1" stop-color="#98D8D7"/>
		</linearGradient>
	</defs>
	<path fill="url(#gradient_0)" transform="scale(0.719727 0.719727)" d="M897.147 528.938L898.655 529.616C892.158 540.268 886.715 551.388 880.85 562.382Q871.374 580.096 860.902 597.239C857.339 603.095 853.789 609.145 849.707 614.66C849.679 610.147 858.649 601.009 860.582 595.927C859.794 592.748 854.998 586.842 853.202 583.66C850.689 579.209 847.175 570.562 844.385 566.97C843.538 566.858 842.791 566.75 841.989 566.44C837.156 564.573 831.593 563.9 826.498 562.937L826.595 562.374C831.465 562.882 836.475 564.22 841.257 565.273C851.043 567.426 860.747 569.708 870.391 572.433C878.871 557.772 887.562 542.899 897.147 528.938Z"/>
	<path fill="#528B8A" transform="scale(0.719727 0.719727)" d="M725.486 553.559Q737.407 550.9 749.077 547.298C756.633 550.972 768.978 551.983 777.451 553.611C783.522 554.777 789.436 556.199 795.441 557.644C805.469 559.009 815.531 560.857 825.581 561.962L826.595 562.374L826.498 562.937C831.593 563.9 837.156 564.573 841.989 566.44C842.791 566.75 843.538 566.858 844.385 566.97C847.175 570.562 850.689 579.209 853.202 583.66C854.998 586.842 859.794 592.748 860.582 595.927C858.649 601.009 849.679 610.147 849.707 614.66C842.37 627.861 819.506 658.252 805.127 662.445C798.747 664.306 792.102 663.014 786.396 659.773C770.977 651.014 747.103 606.301 738.534 589.61C732.616 602.683 727.107 615.8 723.407 629.7C722.174 634.33 721.982 641.736 720.733 645.51C720.582 644.802 720.662 643.915 719.971 643.543C716.85 641.863 667.566 642.981 663.7 644.855C659.414 646.932 655.84 655.07 653.057 659.103C645.55 669.978 631.494 685.521 616.511 681.325C604.674 678.01 605.777 670.135 599.721 663.841C600.029 663.155 600.096 662.047 600.245 661.289C602.027 661.701 603.85 662.671 605.616 663.24C612.145 665.344 618.689 666.22 625.446 664.698C650.428 659.07 699.874 593.266 714.311 570.754C718.434 565.355 721.774 559.254 725.486 553.559Z"/>
	<path fill="#A1C5CC" transform="scale(0.719727 0.719727)" d="M795.441 557.644C805.469 559.009 815.531 560.857 825.581 561.962C819.009 571.53 814.005 575.622 808.749 587.058C805.211 581.76 795.526 564.403 794.753 558.273L795.441 557.644Z"/>
	<path fill="#A1B8CA" transform="scale(0.719727 0.719727)" d="M536.137 434.493L536.786 434.427C537.879 439.595 537.917 445.037 538.597 450.282Q540.883 468.598 544.032 486.786Q549.785 518.393 557.333 549.621C562.761 571.739 583.501 650.338 599.423 660.773C599.693 660.95 599.971 661.117 600.245 661.289C600.096 662.047 600.029 663.155 599.721 663.841Q590.184 683.575 581.428 703.667C575.578 716.876 569.711 729.959 565.441 743.784Q564.46 746.938 563.604 750.128Q562.748 753.318 562.019 756.54Q561.289 759.761 560.688 763.009Q560.087 766.257 559.614 769.526Q559.142 772.795 558.799 776.081Q558.456 779.366 558.243 782.662Q558.03 785.958 557.947 789.26Q557.865 792.562 557.913 795.865Q557.961 799.168 558.139 802.466Q558.318 805.764 558.626 809.053Q558.935 812.341 559.373 815.615Q559.812 818.889 560.379 822.143Q560.947 825.397 561.642 828.626Q562.338 831.855 563.16 835.054Q563.983 838.253 564.931 841.417Q565.879 844.581 566.952 847.705C570.299 857.168 574.756 865.846 579.709 874.535L490.078 874.973C472.04 874.995 453.863 875.548 435.876 874.061C419.491 881.089 402.806 887.95 385.869 893.532C372.234 898.027 358.3 901.534 344.601 905.807C343.12 906.269 341.218 906.741 340.58 908.236C341.06 909.074 341.112 909.26 342.125 909.492C343.534 909.815 345.302 909.653 346.759 909.638C344.998 909.749 343.232 909.831 341.48 910.049C342.597 915.47 344.89 921.039 346.888 926.206C342.947 929.15 338.841 931.996 335.156 935.257C330.999 929.053 326.314 923.46 321.316 917.934C316.253 927.535 305.552 951.24 299.038 958.192C297.17 960.185 294.931 961.528 292.338 962.357C287.721 963.833 282.466 964.295 277.669 965.064L254.769 968.809C249.586 969.605 244.247 970.108 239.132 971.206Q249.274 960.207 259.122 948.943C262.892 944.592 266.512 939.779 270.558 935.706C272.287 928.329 273.877 920.914 275.495 913.512C265.205 912.729 255.152 913.562 245.001 915.318C230.627 916.273 216.289 917.166 202.018 919.197C193.735 920.375 181.62 923.507 173.732 923.63C175.132 914.581 174.815 906.188 171.418 897.593C170.644 895.634 169.421 892.07 167.448 891.229C157.344 901.331 119.3 929.387 105.959 929.137C104.281 929.105 102.786 928.688 101.604 927.437C100.296 926.053 99.8372 924.178 100.071 922.327C100.365 920.008 101.726 917.604 102.726 915.503C110.909 905.694 122.468 898.553 131.641 889.615C133.93 887.385 134.823 884.243 135.272 881.157C136.42 873.264 135.412 864.22 135.187 856.229C134.79 842.163 134.423 828.139 134.518 814.065C134.581 808.065 133.875 801.958 133.667 795.948L132.207 750.356Q131.784 739.226 131.562 728.09C131.493 722.943 131.872 717.535 131.106 712.455C130.77 707.287 129.927 702.124 129.457 696.962C128.437 685.779 127.639 674.657 126.347 663.496C125.734 658.195 125.636 652.442 124.352 647.276C123.36 643.287 120.943 639.173 119.267 635.411C115.83 627.691 113.101 619.267 112.044 610.865C109.981 594.456 114.177 580.284 124.258 567.366C131.836 559.24 139.932 555.792 151.043 555.407C186.327 554.185 266.719 589.837 302.33 604.816C325.901 614.731 349.691 624.407 372.706 635.564C376.855 632.452 380.625 627.997 384.864 625.237C394.577 626.42 404.472 626.514 414.248 626.709C447.825 627.38 492.621 625.513 525.173 616.779C525.546 604.477 526.942 592.097 527.9 579.818Q529.662 556.541 530.882 533.229L534.755 466.037C535.306 455.479 535.188 445.051 536.137 434.493ZM124.258 567.366C114.177 580.284 109.981 594.456 112.044 610.865C113.101 619.267 115.83 627.691 119.267 635.411C120.943 639.173 123.36 643.287 124.352 647.276C125.636 652.442 125.734 658.195 126.347 663.496C127.639 674.657 128.437 685.779 129.457 696.962C129.927 702.124 130.77 707.287 131.106 712.455C131.872 717.535 131.493 722.943 131.562 728.09Q131.784 739.226 132.207 750.356L133.667 795.948C133.875 801.958 134.581 808.065 134.518 814.065C134.423 828.139 134.79 842.163 135.187 856.229C135.412 864.22 136.42 873.264 135.272 881.157C134.823 884.243 133.93 887.385 131.641 889.615C122.468 898.553 110.909 905.694 102.726 915.503C101.726 917.604 100.365 920.008 100.071 922.327C99.8372 924.178 100.296 926.053 101.604 927.437C102.786 928.688 104.281 929.105 105.959 929.137C119.3 929.387 157.344 901.331 167.448 891.229C169.421 892.07 170.644 895.634 171.418 897.593C174.815 906.188 175.132 914.581 173.732 923.63C181.62 923.507 193.735 920.375 202.018 919.197C216.289 917.166 230.627 916.273 245.001 915.318C255.152 913.562 265.205 912.729 275.495 913.512C273.877 920.914 272.287 928.329 270.558 935.706C271.441 938.058 272.457 939.97 274.721 941.222C276.102 941.986 277.451 942.082 278.93 941.579C283.285 940.097 287.655 935.151 290.275 931.471C294.82 925.089 298.116 917.463 301.478 910.407C306.63 899.595 311.585 888.684 317.009 878.005C309.651 875.503 303.009 872.451 296.159 868.834C293.138 861.604 290.855 854.048 288.348 846.626L276.925 813.319C271.015 796.383 264.119 779.757 257.753 762.986C252.603 749.42 247.991 735.605 242.543 722.159C240.367 716.914 229.093 689.096 229.571 685.646C224.175 679.112 217.698 673.575 211.559 667.76Q202.543 659.127 193.903 650.118C176.548 632.329 159.162 614.692 143.828 595.083C136.817 586.118 130.844 576.609 124.258 567.366Z"/>
	<path fill="white" transform="scale(0.719727 0.719727)" d="M229.571 685.646C234.74 689.117 239.148 694.687 243.478 699.174Q250.705 706.657 258.418 713.638Q250.518 717.968 242.543 722.159C240.367 716.914 229.093 689.096 229.571 685.646Z"/>
	<path fill="#A1C5CC" transform="scale(0.719727 0.719727)" d="M536.137 434.493L536.786 434.427C537.879 439.595 537.917 445.037 538.597 450.282Q540.883 468.598 544.032 486.786Q549.785 518.393 557.333 549.621C562.761 571.739 583.501 650.338 599.423 660.773C599.693 660.95 599.971 661.117 600.245 661.289C600.096 662.047 600.029 663.155 599.721 663.841Q590.184 683.575 581.428 703.667C575.578 716.876 569.711 729.959 565.441 743.784Q564.46 746.938 563.604 750.128Q562.748 753.318 562.019 756.54Q561.289 759.761 560.688 763.009Q560.087 766.257 559.614 769.526Q559.142 772.795 558.799 776.081Q558.456 779.366 558.243 782.662Q558.03 785.958 557.947 789.26Q557.865 792.562 557.913 795.865Q557.961 799.168 558.139 802.466Q558.318 805.764 558.626 809.053Q558.935 812.341 559.373 815.615Q559.812 818.889 560.379 822.143Q560.947 825.397 561.642 828.626Q562.338 831.855 563.16 835.054Q563.983 838.253 564.931 841.417Q565.879 844.581 566.952 847.705C570.299 857.168 574.756 865.846 579.709 874.535L490.078 874.973C472.04 874.995 453.863 875.548 435.876 874.061C438.704 871.672 442.992 870.002 446.275 868.252C452.549 864.906 458.861 861.53 464.957 857.869C492.784 841.157 520.429 813.226 536.363 784.835Q537.88 782.166 539.272 779.431Q540.665 776.695 541.93 773.898Q543.195 771.101 544.33 768.248Q545.465 765.396 546.467 762.495Q547.469 759.593 548.337 756.649Q549.204 753.704 549.935 750.723Q550.666 747.741 551.259 744.729Q551.852 741.717 552.305 738.681C558.938 692.712 537.051 659.139 525.173 616.779C525.546 604.477 526.942 592.097 527.9 579.818Q529.662 556.541 530.882 533.229L534.755 466.037C535.306 455.479 535.188 445.051 536.137 434.493Z"/>
	<path fill="white" transform="scale(0.719727 0.719727)" d="M124.258 567.366C130.844 576.609 136.817 586.118 143.828 595.083C159.162 614.692 176.548 632.329 193.903 650.118Q202.543 659.127 211.559 667.76C217.698 673.575 224.175 679.112 229.571 685.646C229.093 689.096 240.367 716.914 242.543 722.159C247.991 735.605 252.603 749.42 257.753 762.986C264.119 779.757 271.015 796.383 276.925 813.319L288.348 846.626C290.855 854.048 293.138 861.604 296.159 868.834C303.009 872.451 309.651 875.503 317.009 878.005C311.585 888.684 306.63 899.595 301.478 910.407C298.116 917.463 294.82 925.089 290.275 931.471C287.655 935.151 283.285 940.097 278.93 941.579C277.451 942.082 276.102 941.986 274.721 941.222C272.457 939.97 271.441 938.058 270.558 935.706C272.287 928.329 273.877 920.914 275.495 913.512C265.205 912.729 255.152 913.562 245.001 915.318C230.627 916.273 216.289 917.166 202.018 919.197C193.735 920.375 181.62 923.507 173.732 923.63C175.132 914.581 174.815 906.188 171.418 897.593C170.644 895.634 169.421 892.07 167.448 891.229C157.344 901.331 119.3 929.387 105.959 929.137C104.281 929.105 102.786 928.688 101.604 927.437C100.296 926.053 99.8372 924.178 100.071 922.327C100.365 920.008 101.726 917.604 102.726 915.503C110.909 905.694 122.468 898.553 131.641 889.615C133.93 887.385 134.823 884.243 135.272 881.157C136.42 873.264 135.412 864.22 135.187 856.229C134.79 842.163 134.423 828.139 134.518 814.065C134.581 808.065 133.875 801.958 133.667 795.948L132.207 750.356Q131.784 739.226 131.562 728.09C131.493 722.943 131.872 717.535 131.106 712.455C130.77 707.287 129.927 702.124 129.457 696.962C128.437 685.779 127.639 674.657 126.347 663.496C125.734 658.195 125.636 652.442 124.352 647.276C123.36 643.287 120.943 639.173 119.267 635.411C115.83 627.691 113.101 619.267 112.044 610.865C109.981 594.456 114.177 580.284 124.258 567.366ZM193.334 765.059C191.728 775.502 188.362 785.26 185.482 795.383C181.637 808.901 178.037 822.533 173.82 835.94Q171.352 845.499 168.457 854.938C163.939 869.233 160.968 876.814 167.448 891.229C169.421 892.07 170.644 895.634 171.418 897.593C174.815 906.188 175.132 914.581 173.732 923.63C181.62 923.507 193.735 920.375 202.018 919.197C216.289 917.166 230.627 916.273 245.001 915.318C255.152 913.562 265.205 912.729 275.495 913.512L279.53 894.766C279.64 893.168 279.788 891.666 278.954 890.214C271.018 876.394 260.001 863.994 250.991 850.824C231.544 822.4 213.022 793.314 193.334 765.059Z"/>
	<path fill="#A1B8CA" transform="scale(0.719727 0.719727)" d="M193.334 765.059C213.022 793.314 231.544 822.4 250.991 850.824C260.001 863.994 271.018 876.394 278.954 890.214C279.788 891.666 279.64 893.168 279.53 894.766L275.495 913.512C265.205 912.729 255.152 913.562 245.001 915.318C230.627 916.273 216.289 917.166 202.018 919.197C193.735 920.375 181.62 923.507 173.732 923.63C175.132 914.581 174.815 906.188 171.418 897.593C170.644 895.634 169.421 892.07 167.448 891.229C160.968 876.814 163.939 869.233 168.457 854.938Q171.352 845.499 173.82 835.94C178.037 822.533 181.637 808.901 185.482 795.383C188.362 785.26 191.728 775.502 193.334 765.059ZM246.456 880.666C244.65 892.089 244.881 903.784 245.001 915.318C255.152 913.562 265.205 912.729 275.495 913.512L279.53 894.766C267.979 892.476 256.778 886.206 246.456 880.666Z"/>
	<path fill="#9FD7D6" transform="scale(0.719727 0.719727)" d="M173.82 835.94C181.211 841.009 189.093 845.505 196.74 850.18C213.319 860.313 230.05 870.258 246.456 880.666C244.65 892.089 244.881 903.784 245.001 915.318C230.627 916.273 216.289 917.166 202.018 919.197C193.735 920.375 181.62 923.507 173.732 923.63C175.132 914.581 174.815 906.188 171.418 897.593C170.644 895.634 169.421 892.07 167.448 891.229C160.968 876.814 163.939 869.233 168.457 854.938Q171.352 845.499 173.82 835.94Z"/>
	<path fill="white" transform="scale(0.719727 0.719727)" d="M269.175 97.291C269.361 97.2195 269.55 97.1591 269.731 97.0764C275.215 94.5624 280.118 89.5038 285.529 86.478C308.827 73.4497 335.885 66.1815 361.996 74.9076C389.253 84.0166 407.809 105.621 420.216 130.756C423.179 136.759 425.926 142.82 428.108 149.157C432.131 160.838 434.482 178.103 447.982 182.597C456.666 185.488 465.359 182.58 474.124 182.04C493.075 180.87 510.453 191.793 519.21 208.394C526.327 221.887 527.576 238.672 522.949 253.167C518.397 267.431 508.387 280.694 494.926 287.599C485.625 292.37 475.115 292.305 465.785 296.476C458.903 299.552 454.736 305.827 448.423 309.447C467.023 312.79 486.148 309.838 504.099 316.626C523.523 330.205 529.051 344.674 533.072 367.303C534.325 374.352 535.304 381.614 535.679 388.764C536.008 395.026 535.795 401.317 536.985 407.497C536.86 416.268 537.508 425.852 536.137 434.493C535.188 445.051 535.306 455.479 534.755 466.037L530.882 533.229Q529.662 556.541 527.9 579.818C526.942 592.097 525.546 604.477 525.173 616.779C492.621 625.513 447.825 627.38 414.248 626.709C404.472 626.514 394.577 626.42 384.864 625.237C385.386 611.454 385.252 597.756 382.045 584.252C380.223 576.58 377.539 569.144 375.769 561.447C370.851 556.526 364.9 552.219 359.541 547.761Q347.138 537.434 335.177 526.599C327.305 537.813 318.783 550.548 307.016 557.945C301.214 561.592 294.631 563.131 287.887 561.405C271.213 557.139 259.857 537.2 251.701 523.513C244.429 525.926 238.189 531.447 230.743 533.536C226.525 534.719 222.68 534.413 218.445 533.685C213.552 532.844 208.717 531.315 203.939 529.971C187.411 525.324 172.009 519.139 155.98 513.114C142.66 508.108 128.39 503.86 116.021 496.767C108.953 476.585 103.146 455.827 96.3732 435.516C83.4889 396.878 69.8952 358.409 57.9556 319.47C60.9387 320.318 63.8043 321.105 66.5707 322.54Q99.8687 334.304 133.376 345.456C143.442 348.77 154.787 353.521 165.313 354.899C166.249 355.021 167.016 354.916 167.867 354.525C169.304 354.704 171.177 354.183 172.651 354.028C188.115 330.536 206.302 322.369 231.292 312.437L229.359 310.994L228.559 309.621C221.241 297.002 215.809 283.103 219.833 268.424C224.365 251.89 236.145 250.197 249.062 242.611C253.962 239.733 257.677 235.809 259.042 230.167C263.482 211.812 245.092 197.232 236.658 183.222C229.606 171.509 228.042 158.718 231.414 145.541C234.539 133.331 241.884 126.937 252.344 120.786C254.318 116.475 256.277 111.802 259.222 108.041C261.956 104.549 267.407 101.193 269.175 97.291Z"/>
	<path fill="white" transform="scale(0.719727 0.719727)" d="M441.414 404.853C441.015 414.47 440.131 424.07 439.531 433.677C439.143 439.904 439.248 446.61 438.208 452.728C437.9 454.541 437.57 454.884 436.115 456C434.097 452.233 440.103 411.521 441.414 404.853Z"/>
	<path fill="#A1B8CA" transform="scale(0.719727 0.719727)" d="M271.975 189.058C275.252 188.974 280.264 189.362 282.656 191.957C283.162 192.506 283.007 192.932 283.026 193.625C278.447 195.049 273.921 194.244 269.376 196.391L268.853 196.644C266.154 198.604 263.463 200.44 260.58 202.12Q260.913 201.171 261.263 200.227C263.458 194.324 266.363 191.631 271.975 189.058Z"/>
	<path fill="#A1B8CA" transform="scale(0.719727 0.719727)" d="M337.389 167.146C338.101 167.115 338.788 167.09 339.5 167.138C346.443 167.603 352.868 171.226 357.297 176.532C358.613 178.109 361.047 180.887 360.841 182.98C357.428 184.161 348.775 176.283 345.018 175.008C344.83 174.944 344.639 174.89 344.449 174.831Q343.389 174.59 342.321 174.39C337.76 173.545 331.016 174.12 327.188 176.995C325.142 178.532 323.541 180.519 321.409 181.982C320.557 181.388 320.313 180.839 319.878 179.911C319.85 178.858 319.986 178.096 320.584 177.201C324.268 171.687 331.063 168.216 337.389 167.146Z"/>
	<path fill="#A1B8CA" transform="scale(0.719727 0.719727)" d="M334.922 185.931C338.025 185.611 340.24 186.7 342.607 188.663C345.908 191.4 348.087 195.711 348.387 199.981C348.637 203.552 347.336 205.621 345.124 208.285C344.867 208.3 344.611 208.319 344.355 208.329C340.943 208.459 338.115 207.222 335.718 204.827C332.91 202.022 331.179 197.942 331.231 193.962C331.277 190.447 332.421 188.305 334.922 185.931Z"/>
	<path fill="#A1B8CA" transform="scale(0.719727 0.719727)" d="M273.538 206.986C277.521 207.16 280.56 208.361 283.372 211.281C285.757 213.757 287.317 217.149 287.181 220.624C287.037 224.288 285.221 226.527 282.605 228.897C281.413 228.705 280.21 228.507 279.053 228.154C274.937 226.898 271.408 223.511 269.541 219.681C268.341 217.219 267.658 214.536 268.659 211.886C269.631 209.311 271.11 208.133 273.538 206.986Z"/>
	<path fill="white" transform="scale(0.719727 0.719727)" d="M435.945 477.712C438.714 482.549 429.838 524.767 427.821 532.908C419.054 529.765 410.637 525.955 402.042 522.396C388.132 516.637 374.069 510.961 360.642 504.132C352.444 501.499 338.747 492.091 332.636 485.962C341.692 485.869 350.782 487.048 359.84 487.366C373.178 487.833 386.752 487.025 400.001 485.453C404.791 484.885 409.572 484.182 414.237 482.935C421.134 481.09 428.083 478.485 435.213 477.781L435.945 477.712Z"/>
	<path fill="#A1B8CA" transform="scale(0.719727 0.719727)" d="M269.175 97.291C269.361 97.2195 269.55 97.1591 269.731 97.0764C275.215 94.5624 280.118 89.5038 285.529 86.478C308.827 73.4497 335.885 66.1815 361.996 74.9076C389.253 84.0166 407.809 105.621 420.216 130.756C423.179 136.759 425.926 142.82 428.108 149.157C432.131 160.838 434.482 178.103 447.982 182.597C456.666 185.488 465.359 182.58 474.124 182.04C493.075 180.87 510.453 191.793 519.21 208.394C526.327 221.887 527.576 238.672 522.949 253.167C518.397 267.431 508.387 280.694 494.926 287.599C485.625 292.37 475.115 292.305 465.785 296.476C458.903 299.552 454.736 305.827 448.423 309.447C442.734 309.205 437.039 308.533 431.351 308.441C425.609 296.301 420.952 283.731 416.01 271.254C408.672 252.727 401.184 233.949 395.838 214.733C404.902 207.788 414.194 198.46 415.711 186.544C416.442 180.807 414.934 175.028 411.181 170.576C408.061 166.876 403.563 164.358 398.69 164.07C394.768 163.838 390.974 165.115 388.056 167.756C383.576 171.811 382.49 177.579 382.357 183.333Q382.325 184.694 382.322 186.056C378.732 184.613 375.158 183.256 372.069 180.861C362.017 173.066 365.343 164.697 350.562 158.668C342.465 161.195 334.388 164.723 326.175 166.684C310.951 170.319 293.002 167.15 279.252 159.926C272.056 156.145 267.202 150.818 261.121 145.64C258.234 173.288 257.107 198.866 263.642 226.107C266.355 237.414 270.004 248.173 277.403 257.306Q279.638 260.068 282.168 262.562Q284.697 265.057 287.49 267.253C293.97 272.336 301.429 276.124 308.434 280.431C313.03 283.256 317.532 286.736 322.413 289.032C325.37 290.423 328.404 291.431 331.677 291.728C341.892 292.654 350.834 286.434 358.987 281.151C362.278 294.841 364.091 309.049 366.844 322.887C348.011 327.093 326.966 332.413 311.854 344.938C306.331 349.515 301.647 354.988 296.63 360.093C295.932 360.996 295.14 361.884 294.606 362.893Q300.196 384.016 306.57 404.915C308.877 412.544 311.971 420.307 313.617 428.083C288.864 413.857 272.562 412.842 245.025 420.172C242.896 420.738 239.338 421.776 238.074 423.664C237.974 423.813 237.918 423.986 237.84 424.147C238.336 425.131 238.489 425.167 239.501 425.534C242.325 426.556 246.06 426.501 249.037 426.47C269.983 426.258 282.799 418.526 300.822 433.903C285.187 426.149 273.807 426.862 256.875 429.369C251.869 430.11 246.339 430.61 241.573 432.319C240.643 432.652 239.882 433.096 239.064 433.639L238.859 434.525C243.595 438.505 263.146 435.797 269.406 435.732C273.294 435.691 277.277 436.031 281.064 436.929C286.546 438.228 290.885 440.597 295.497 443.756C276.412 436.45 260.877 438.174 241.464 443.456C258.884 452.615 273.634 440.746 292.569 455.727C281.913 451.593 270.684 450.521 259.3 451.075C256.801 451.197 253.66 451.15 251.333 452.172C250.175 452.68 249.983 453.019 249.337 454.049C249.618 455.094 249.681 455.243 250.708 455.775C259.468 460.311 272.599 456.623 281.773 461.377C293.222 467.309 295.817 487.518 304.804 497.311C297.665 501.169 290.533 505.024 283.206 508.515C276.769 511.583 255.295 520.533 251.701 523.513C244.429 525.926 238.189 531.447 230.743 533.536C226.525 534.719 222.68 534.413 218.445 533.685C213.552 532.844 208.717 531.315 203.939 529.971C187.411 525.324 172.009 519.139 155.98 513.114C142.66 508.108 128.39 503.86 116.021 496.767C108.953 476.585 103.146 455.827 96.3732 435.516C83.4889 396.878 69.8952 358.409 57.9556 319.47C60.9387 320.318 63.8043 321.105 66.5707 322.54Q99.8687 334.304 133.376 345.456C143.442 348.77 154.787 353.521 165.313 354.899C166.249 355.021 167.016 354.916 167.867 354.525C169.304 354.704 171.177 354.183 172.651 354.028C188.115 330.536 206.302 322.369 231.292 312.437L229.359 310.994L228.559 309.621C221.241 297.002 215.809 283.103 219.833 268.424C224.365 251.89 236.145 250.197 249.062 242.611C253.962 239.733 257.677 235.809 259.042 230.167C263.482 211.812 245.092 197.232 236.658 183.222C229.606 171.509 228.042 158.718 231.414 145.541C234.539 133.331 241.884 126.937 252.344 120.786C254.318 116.475 256.277 111.802 259.222 108.041C261.956 104.549 267.407 101.193 269.175 97.291Z"/>
	<path fill="#E1E1E1" transform="scale(0.719727 0.719727)" d="M294.606 362.893C291.174 352.899 288.714 342.615 285.749 332.491C285.552 331.816 285.368 331.147 285.194 330.465L295.736 330.519C295.584 337.169 294.214 354.706 296.63 360.093C295.932 360.996 295.14 361.884 294.606 362.893Z"/>
	<path fill="white" transform="scale(0.719727 0.719727)" d="M231.292 312.437C244.838 308.169 258.283 303.811 271.599 298.86Q273.326 305.774 274.981 312.705C260.266 320.457 244.779 326.163 229.527 332.707C216.886 338.131 204.459 344.437 191.612 349.336C188.114 350.669 176.661 355.235 173.153 354.244C172.978 354.195 172.818 354.1 172.651 354.028C188.115 330.536 206.302 322.369 231.292 312.437Z"/>
	<path fill="white" transform="scale(0.719727 0.719727)" d="M555.675 289.771C560.327 288.674 565.098 282.769 567.962 279.174C586.46 255.95 596.142 222.689 604.407 194.468C606.909 185.926 608.895 176.883 612.109 168.586C614.986 161.157 618.922 154.259 623.554 147.788C643.612 119.767 679.729 104.28 713.696 112.795C717.612 113.776 730.341 119.5 732.948 119.059C740.951 116.977 749.974 116.628 758.225 116.259C794.848 114.623 827.751 123.001 859.313 141.57Q861.241 142.701 863.14 143.88Q865.04 145.059 866.91 146.284Q868.779 147.509 870.618 148.78Q872.457 150.051 874.264 151.367Q876.071 152.683 877.845 154.044Q879.619 155.404 881.359 156.808Q883.099 158.211 884.803 159.658Q886.508 161.104 888.176 162.592Q889.845 164.079 891.476 165.608Q893.107 167.137 894.7 168.705Q896.293 170.274 897.846 171.881Q899.4 173.488 900.913 175.133Q902.427 176.779 903.899 178.461Q905.372 180.143 906.802 181.861Q908.232 183.578 909.62 185.331Q911.008 187.084 912.351 188.87Q913.695 190.657 914.994 192.476Q916.294 194.295 917.548 196.145Q918.802 197.996 920.01 199.877Q921.218 201.758 922.379 203.668Q923.54 205.578 924.653 207.517Q925.767 209.455 926.832 211.42Q927.898 213.386 928.914 215.377Q929.93 217.368 930.898 219.383Q931.865 221.399 932.781 223.437Q933.698 225.476 934.565 227.537Q935.431 229.598 936.246 231.679Q937.061 233.761 937.825 235.862Q938.588 237.963 939.3 240.082Q940.011 242.201 940.67 244.337Q941.329 246.473 941.935 248.625Q942.54 250.777 943.093 252.943C951.544 285.659 948.626 317.558 941.733 350.236C940.349 356.798 939.195 363.548 937.489 370.028C937.076 375.354 935.499 380.801 935.742 386.141C943.918 371.671 951.805 358.362 963.95 346.762C970.023 350.204 975.995 352.818 982.495 355.313L982.659 356.044L981.312 357.797L981.429 358.491C986.548 359.062 989.93 362.5 994.039 365.378C994.643 370.106 962.945 421.383 958.6 430.863L960.105 435.742C962.315 446.849 964.693 464.191 958.177 474.232C955.39 478.528 951.442 482.183 947.74 485.69C939.524 493.473 930.606 500.475 921.81 507.584C914.772 513.273 906.848 519.014 901.321 526.229L898.655 529.616L897.147 528.938C887.562 542.899 878.871 557.772 870.391 572.433C860.747 569.708 851.043 567.426 841.257 565.273C836.475 564.22 831.465 562.882 826.595 562.374L825.581 561.962C815.531 560.857 805.469 559.009 795.441 557.644C789.436 556.199 783.522 554.777 777.451 553.611C768.978 551.983 756.633 550.972 749.077 547.298Q737.407 550.9 725.486 553.559C721.774 559.254 718.434 565.355 714.311 570.754C699.874 593.266 650.428 659.07 625.446 664.698C618.689 666.22 612.145 665.344 605.616 663.24C603.85 662.671 602.027 661.701 600.245 661.289C599.971 661.117 599.693 660.95 599.423 660.773C583.501 650.338 562.761 571.739 557.333 549.621Q549.785 518.393 544.032 486.786Q540.883 468.598 538.597 450.282C537.917 445.037 537.879 439.595 536.786 434.427L536.137 434.493C537.508 425.852 536.86 416.268 536.985 407.497C535.795 401.317 536.008 395.026 535.679 388.764C535.304 381.614 534.325 374.352 533.072 367.303C529.051 344.674 523.523 330.205 504.099 316.626C506.84 312.063 509.699 307.623 513.411 303.776C526.068 290.658 538.594 290.142 555.675 289.771Z"/>
	<path fill="#A1C5CC" transform="scale(0.719727 0.719727)" d="M709.828 222.935C713.674 224.081 717.56 225.509 719.699 229.201C720.606 230.766 720.828 232.553 720.302 234.285C719.806 235.918 718.88 237.273 717.716 238.501C717.734 235.647 717.571 233.957 716.092 231.45C715.99 231.351 715.861 231.273 715.786 231.152C713.916 228.152 711.907 225.768 709.828 222.935Z"/>
	<path fill="silver" transform="scale(0.719727 0.719727)" d="M770.613 249.349C769.615 249.871 768.665 250.235 767.573 250.527C765.243 251.151 762.853 251.362 760.713 250.039C759.029 248.998 758.01 247.167 757.638 245.258C757.007 242.017 757.938 238.45 759.895 235.818C761.583 233.548 763.216 232.445 766.011 232.033C765.954 232.227 765.9 232.421 765.841 232.615C764.821 235.93 759.873 242.544 761.787 245.688C763.114 247.867 766.645 248.873 768.987 249.155C769.439 249.21 769.895 249.232 770.347 249.291C770.437 249.303 770.524 249.33 770.613 249.349Z"/>
	<path fill="#A1B8CA" transform="scale(0.719727 0.719727)" d="M769.626 198.538C772.016 198.431 774.364 198.328 776.619 199.265C779.086 200.289 782.635 202.784 783.459 205.48C783.873 206.833 783.756 207.163 783.228 208.381C781.785 208.984 781.4 208.826 779.896 208.591C776.028 207.486 768.046 206.12 765.457 203.098C764.907 202.456 765.105 202.111 765.129 201.328C766.266 199.767 767.897 199.281 769.626 198.538Z"/>
	<path fill="#A1B8CA" transform="scale(0.719727 0.719727)" d="M766.011 232.033C768.616 232.088 770.675 232.654 773.128 233.398C774.491 234.788 775.822 236.249 777.245 237.575C777.917 238.203 777.983 237.982 777.929 238.834C777.794 240.972 776.256 243.092 775.107 244.828C774.704 245.437 774.402 246.033 774.122 246.706C773.01 247.702 771.991 248.732 770.613 249.349C770.524 249.33 770.437 249.303 770.347 249.291C769.895 249.232 769.439 249.21 768.987 249.155C766.645 248.873 763.114 247.867 761.787 245.688C759.873 242.544 764.821 235.93 765.841 232.615C765.9 232.421 765.954 232.227 766.011 232.033Z"/>
	<path fill="#A1C5CC" transform="scale(0.719727 0.719727)" d="M709.038 184.65C711.833 184.311 714.337 184.914 716.776 186.308C721.26 188.87 725.737 193.701 727.143 198.741C726.884 199.307 726.727 200.248 726.038 200.388C722.391 201.128 716.793 196.467 713.866 194.48C702.808 189.581 702.021 191.505 691.298 193.528C690.8 192.614 690.981 192.625 691.179 191.66C694.929 187.187 703.562 185.634 709.038 184.65Z"/>
	<path fill="#A1C5CC" transform="scale(0.719727 0.719727)" d="M780.469 232.293C784.14 235.741 787.544 239.501 787.773 244.828C787.948 248.875 786.181 252.49 783.361 255.314C779.54 259.14 774.559 260.975 769.5 262.51C771.498 257.36 773.849 252.296 774.122 246.706C774.402 246.033 774.704 245.437 775.107 244.828C776.256 243.092 777.794 240.972 777.929 238.834C777.983 237.982 777.917 238.203 777.245 237.575L780.469 232.293Z"/>
	<path fill="silver" transform="scale(0.719727 0.719727)" d="M717.716 238.501C716.052 240.767 713.064 242.625 710.351 243.313Q709.875 243.434 709.389 243.505Q708.904 243.577 708.413 243.598Q707.922 243.619 707.432 243.589Q706.942 243.559 706.458 243.479Q705.973 243.399 705.5 243.269Q705.026 243.139 704.568 242.962Q704.111 242.784 703.674 242.56Q703.237 242.336 702.825 242.068C700.557 240.592 699.164 238.222 698.728 235.578C698.272 232.821 699.116 226.085 701.023 223.93C702.699 222.037 706.471 222.556 708.843 222.293L709.828 222.935C711.907 225.768 713.916 228.152 715.786 231.152C715.861 231.273 715.99 231.351 716.092 231.45C717.571 233.957 717.734 235.647 717.716 238.501Z"/>
	<path fill="#A1B8CA" transform="scale(0.719727 0.719727)" d="M708.843 222.293L709.828 222.935C711.907 225.768 713.916 228.152 715.786 231.152C715.861 231.273 715.99 231.351 716.092 231.45C715.345 233.936 714.239 236.367 712.184 238.056C711.049 238.99 709.679 239.469 708.211 239.159C706.429 238.782 705.058 237.378 704.257 235.805C703.087 233.508 702.936 230.616 703.837 228.205C704.699 225.896 706.711 223.34 708.843 222.293Z"/>
	<path fill="#A1B8CA" transform="scale(0.719727 0.719727)" d="M702.403 308.755C703.184 309.03 703.953 309.285 704.748 309.515C720.631 314.101 732.761 309.143 746.63 301.531C748.482 305.632 748.696 310.164 749.134 314.585C750.582 329.194 750.595 344.144 745.292 358.064C743.665 362.336 741.476 366.001 739.332 369.996C735.086 367.652 730.502 365.851 725.955 364.192C717.341 361.14 709.106 357.056 700.84 353.185C699.32 338.119 699.69 323.684 702.403 308.755Z"/>
	<path fill="#9FD7D6" transform="scale(0.719727 0.719727)" d="M725.955 364.192C730.502 365.851 735.086 367.652 739.332 369.996C753.592 378.626 766.907 387.937 774.779 403.127C761.702 431.717 747.614 460.133 735.843 489.27C735.942 486.718 736.244 483.879 735.644 481.384C735.592 481.17 735.529 480.96 735.473 480.748C734.761 478.028 733.327 475.897 731.83 473.56C731.309 467.393 731.986 460.983 731.983 454.779C731.978 444.779 731.527 434.721 730.968 424.737Q730.192 410.253 728.741 395.821C727.652 385.306 726.215 374.767 725.955 364.192Z"/>
	<path fill="#A1B8CA" transform="scale(0.719727 0.719727)" d="M643.555 249.257C648.155 251.512 651.995 252.614 657.084 253.148C657.472 255.231 657.808 257.321 658.426 259.35C658.343 259.531 658.257 259.71 658.175 259.892C655.338 266.196 654.148 273.589 652.731 280.333C649.665 294.93 643.664 332.515 635.053 343.519C632.581 346.677 629.036 348.327 625.392 349.757C615.03 353.823 604.75 356.158 594.8 361.468Q584.48 364.875 574.472 369.114C574.403 369.01 574.33 368.909 574.265 368.802C570.426 362.444 570.424 354.522 572.32 347.53C577.249 329.36 595.336 326.894 609.471 318.785C635.171 304.041 636.755 274.876 643.555 249.257Z"/>
	<path fill="#A1B8CA" transform="scale(0.719727 0.719727)" d="M994.039 365.378C994.643 370.106 962.945 421.383 958.6 430.863L960.105 435.742C962.315 446.849 964.693 464.191 958.177 474.232C955.39 478.528 951.442 482.183 947.74 485.69C939.524 493.473 930.606 500.475 921.81 507.584C914.772 513.273 906.848 519.014 901.321 526.229L898.655 529.616L897.147 528.938C887.562 542.899 878.871 557.772 870.391 572.433C860.747 569.708 851.043 567.426 841.257 565.273C836.475 564.22 831.465 562.882 826.595 562.374L825.581 561.962C815.531 560.857 805.469 559.009 795.441 557.644C789.436 556.199 783.522 554.777 777.451 553.611C768.978 551.983 756.633 550.972 749.077 547.298C758.597 543.341 767.875 538.822 777.327 534.71C784.118 531.755 795.388 528.954 800.706 524.254L800.636 523.413C795.242 519.479 782.945 527.273 776.384 524.051C776.091 518.467 813.575 510.924 818.876 503.875C819.492 503.055 819.536 502.901 819.416 501.87C812.678 498.349 789.791 509.769 781.81 511.599C779.979 512.019 777.849 512.546 776.165 511.48C775 503.731 818.214 492.758 821.815 482.684L821.3 481.918C812.89 480.058 781.133 496.483 772.389 500.365C771.587 499.067 770.899 497.648 770.169 496.304C772.634 493.611 774.971 490.774 777.272 487.94C781.892 482.251 801.018 458.037 800.406 452.17L799.792 451.744C793.887 452.646 766.871 484.693 759.657 490.781C751.683 497.511 742.261 502.67 733.152 507.683C735.945 499.494 739.998 491.829 743.71 484.036Q749.641 471.357 755.331 458.567L776.887 410.186C782.287 397.999 787.407 385.721 793.816 374.02C815.609 381.02 838.146 385.48 860.33 391.134C892.621 399.364 924.722 408.303 957.121 416.11Q952.803 412.55 948.531 408.936C960.331 390.173 974.704 376.239 994.039 365.378Z"/>
	<path fill="#E1E1E1" transform="scale(0.719727 0.719727)" d="M958.6 430.863L960.105 435.742C958.33 437.786 956.352 439.824 954.758 442.004C955.057 437.886 956.444 434.352 958.6 430.863Z"/>
	<path fill="white" transform="scale(0.719727 0.719727)" d="M948.551 457.836C947.927 453.61 946.829 449.47 946.015 445.279C945.401 442.117 944.447 436.966 946.571 434.248C947.061 433.621 947.44 433.725 948.167 433.589C951.726 435.439 952.018 439.201 954.07 442.259L954.758 442.004C956.352 439.824 958.33 437.786 960.105 435.742C962.315 446.849 964.693 464.191 958.177 474.232C955.39 478.528 951.442 482.183 947.74 485.69C939.524 493.473 930.606 500.475 921.81 507.584C914.772 513.273 906.848 519.014 901.321 526.229L898.655 529.616L897.147 528.938C906.282 509.46 918.633 489.419 935.76 476.065C933.906 472.96 930.711 467.865 930.881 464.204C930.927 463.223 930.831 463.603 931.6 462.825C935.241 463.003 937.936 466.598 940.281 469.057C939.295 463.708 937.04 458.693 935.976 453.351C935.602 451.478 935.1 448.561 936.37 446.922C936.848 446.305 937.448 446.405 938.167 446.277C943.329 447.728 945.926 453.571 948.551 457.836Z"/>
	<path fill="#9FD7D6" transform="scale(0.719727 0.719727)" d="M574.472 369.114Q584.479 364.875 594.8 361.468C593.636 364.01 592.117 366.453 591.07 369.029C612.979 382.939 626.504 399.272 643.687 418.176C668.079 445.013 693.073 472.156 724.576 490.762C723.035 495.346 720.304 500.78 719.381 505.451C714.894 519.151 709.731 538.14 695.966 545.459C694.308 546.341 692.691 546.735 690.846 546.973C697.579 555.937 705.126 564.23 714.311 570.754C699.874 593.266 650.428 659.07 625.446 664.698C618.689 666.22 612.145 665.344 605.616 663.24C603.85 662.671 602.027 661.701 600.245 661.289C599.971 661.117 599.693 660.95 599.423 660.773C583.501 650.338 562.761 571.739 557.333 549.621Q549.785 518.393 544.032 486.786Q540.883 468.598 538.597 450.282C537.917 445.037 537.879 439.595 536.786 434.427L536.137 434.493C537.508 425.852 536.86 416.268 536.985 407.497C540.432 400.5 541.402 394.878 546.171 388.097C554.069 379.526 563.837 373.646 574.472 369.114Z"/>
	<path fill="#528B8A" transform="scale(0.719727 0.719727)" d="M623.401 590.482L624.155 590.568C623.201 593.263 615.145 599.043 612.695 601.721C610.101 604.558 607.62 607.883 605.708 611.22C600.57 620.184 602.455 629.921 598.762 636.395C596.023 629.302 596.225 619.118 598.849 611.986C602.991 600.732 613.203 595.286 623.401 590.482Z"/>
	<path fill="#528B8A" transform="scale(0.719727 0.719727)" d="M626.495 589.225C628.741 576.872 627.598 562.965 626.987 550.463C626.122 532.748 625.087 514.907 623.364 497.253C621.963 482.892 619.814 468.452 618.794 454.077L619.028 453.808C622.983 467.651 623.796 482.422 626.629 496.523C650.163 508.089 675.688 507.378 701.163 505.814C706.576 505.481 714.274 503.875 719.381 505.451C714.894 519.151 709.731 538.14 695.966 545.459C694.308 546.341 692.691 546.735 690.846 546.973C686.559 547.04 636.004 584.421 626.495 589.225Z"/>
	<path fill="#A1C5CC" transform="scale(0.719727 0.719727)" d="M555.675 289.771C560.327 288.674 565.098 282.769 567.962 279.174C586.46 255.95 596.142 222.689 604.407 194.468C606.909 185.926 608.895 176.883 612.109 168.586C614.986 161.157 618.922 154.259 623.554 147.788C643.612 119.767 679.729 104.28 713.696 112.795C717.612 113.776 730.341 119.5 732.948 119.059C740.951 116.977 749.974 116.628 758.225 116.259C794.848 114.623 827.751 123.001 859.313 141.57Q861.241 142.701 863.14 143.88Q865.04 145.059 866.91 146.284Q868.779 147.509 870.618 148.78Q872.457 150.051 874.264 151.367Q876.071 152.683 877.845 154.044Q879.619 155.404 881.359 156.808Q883.099 158.211 884.803 159.658Q886.508 161.104 888.176 162.592Q889.845 164.079 891.476 165.608Q893.107 167.137 894.7 168.705Q896.293 170.274 897.846 171.881Q899.4 173.488 900.913 175.133Q902.427 176.779 903.899 178.461Q905.372 180.143 906.802 181.861Q908.232 183.578 909.62 185.331Q911.008 187.084 912.351 188.87Q913.695 190.657 914.994 192.476Q916.294 194.295 917.548 196.145Q918.802 197.996 920.01 199.877Q921.218 201.758 922.379 203.668Q923.54 205.578 924.653 207.517Q925.767 209.455 926.832 211.42Q927.898 213.386 928.914 215.377Q929.93 217.368 930.898 219.383Q931.865 221.399 932.781 223.437Q933.698 225.476 934.565 227.537Q935.431 229.598 936.246 231.679Q937.061 233.761 937.825 235.862Q938.588 237.963 939.3 240.082Q940.011 242.201 940.67 244.337Q941.329 246.473 941.935 248.625Q942.54 250.777 943.093 252.943C951.544 285.659 948.626 317.558 941.733 350.236C940.349 356.798 939.195 363.548 937.489 370.028C937.076 375.354 935.499 380.801 935.742 386.141C934.975 392.011 932.887 398.369 930.118 403.606L929.894 404.209C927.925 404.161 910.673 386.877 907.839 384.363C881.949 361.401 856.575 347.975 824.757 334.6C825.358 341.031 827.849 348.973 825.809 355.311C826.329 360.006 825.834 368.255 822.731 372.072C821.275 373.862 819.386 374.633 817.114 374.736C809.9 375.064 798.6 370.33 791.57 367.965C786.413 379.912 780.056 391.268 774.779 403.127C766.907 387.937 753.592 378.626 739.332 369.996C741.476 366.001 743.665 362.336 745.292 358.064C750.595 344.144 750.582 329.194 749.134 314.585C748.696 310.164 748.482 305.632 746.63 301.531C752.871 296.28 757.614 290.23 762.364 283.667C764.62 278.566 766.547 273.833 767.659 268.346C776.164 266.269 784.948 264.618 790.319 256.898C793.306 252.605 794.593 247.13 793.503 241.985C792.069 235.221 787.581 230.971 782.007 227.396C785.393 219.453 788.169 212.166 788.609 203.473C783.55 184.569 770.591 178.154 757.043 165.657C751.39 160.442 746.909 154.801 743.066 148.155C741.412 150.975 739.82 154.115 737.572 156.511C731.206 163.299 722.583 163.997 714.267 166.965Q710.725 168.237 707.408 170.013Q704.09 171.789 701.068 174.031C687.257 184.151 677.775 198.899 668.333 212.897C665.658 211.483 662.934 209.735 659.951 209.121L658.94 209.493C658.837 210.015 658.702 210.495 658.732 211.03C661.195 212.552 663.644 214.085 666.193 215.459L663.104 221.249C661.467 218.273 659.943 215.591 657.606 213.092C652.759 210.304 647.874 208.682 642.253 210.184C638.331 211.231 635.239 213.785 633.262 217.31C630.57 222.109 630.351 227.605 631.934 232.808C633.91 239.304 638.261 245.076 643.555 249.257C636.755 274.876 635.171 304.041 609.471 318.785C595.336 326.894 577.249 329.36 572.32 347.53C570.424 354.522 570.426 362.444 574.265 368.802C574.33 368.909 574.403 369.01 574.472 369.114C563.837 373.646 554.069 379.526 546.171 388.097C541.402 394.878 540.432 400.5 536.985 407.497C535.795 401.317 536.008 395.026 535.679 388.764C535.304 381.614 534.325 374.352 533.072 367.303C529.051 344.674 523.523 330.205 504.099 316.626C506.84 312.063 509.699 307.623 513.411 303.776C526.068 290.658 538.594 290.142 555.675 289.771Z"/>
	<path fill="#9FD7D6" transform="scale(0.719727 0.719727)" d="M792.851 311.554C809.392 293.41 829.989 279.507 855.237 278.379C874.97 277.498 895.822 284.835 910.365 298.277C925.985 312.714 935.723 334.532 936.487 355.754Q936.689 361.389 936.285 367.014C935.641 372.254 934.995 377.493 934.03 382.686C932.904 388.747 929.44 397.789 930.118 403.606L929.894 404.209C927.925 404.161 910.673 386.877 907.839 384.363C881.949 361.401 856.575 347.975 824.757 334.6C825.358 341.031 827.849 348.973 825.809 355.311C821.022 343.296 812.88 332.878 803.847 323.741C800.215 320.068 795.249 316.14 792.851 311.554Z"/>
</svg>
